<?xml version="1.0" encoding="UTF-8"?>
<svg version="1.1" xmlns="http://www.w3.org/2000/svg" width="626" height="626">
<path d="M0 0 C206.58 0 413.16 0 626 0 C626 206.58 626 413.16 626 626 C419.42 626 212.84 626 0 626 C0 419.42 0 212.84 0 0 Z " fill="#C4296C" transform="translate(0,0)"/>
<path d="M0 0 C206.58 0 413.16 0 626 0 C626 206.58 626 413.16 626 626 C419.42 626 212.84 626 0 626 C0 419.42 0 212.84 0 0 Z M232 19 C231.11699219 19.22913086 230.23398438 19.45826172 229.32421875 19.69433594 C215.01293755 23.48099982 201.53112409 29.04534147 188 35 C187.22027832 35.33757324 186.44055664 35.67514648 185.63720703 36.02294922 C157.95412636 48.06911719 132.57339468 65.60132683 110.32421875 85.89453125 C108.28726075 87.73977555 106.21729153 89.5308167 104.125 91.3125 C95.82368311 98.55299952 88.0356506 106.52907667 81 115 C80.32614258 115.79519043 80.32614258 115.79519043 79.63867188 116.60644531 C70.92681595 126.90379225 63.26498243 137.64349785 56 149 C55.30519531 150.0621875 54.61039063 151.124375 53.89453125 152.21875 C45.04814845 166.08112305 37.13791205 180.94110009 31.37890625 196.35546875 C30.19217163 199.49207894 28.91293294 202.55468036 27.59375 205.63671875 C24.98873335 211.86102213 22.89102824 218.17009563 20.9375 224.625 C20.59170898 225.76670654 20.24591797 226.90841309 19.88964844 228.0847168 C12.86187692 251.63836936 8.51477856 276.38715012 8 301 C7.97421875 301.91233398 7.9484375 302.82466797 7.921875 303.76464844 C6.88717149 344.44143014 13.66715205 382.67963579 27 421 C27.5422992 422.61176648 28.08406953 424.22371114 28.625 425.8359375 C32.01927979 435.67085729 36.81385134 444.66900944 41.79785156 453.77490234 C42.87512562 455.76886574 43.91255772 457.77567048 44.9296875 459.80078125 C54.32492385 478.36953746 66.65378083 496.23590407 80.765625 511.515625 C83.03630573 514.04036791 85.14222112 516.65085221 87.25 519.3125 C94.93606061 528.77947709 103.64690302 537.2058122 113.20703125 544.765625 C115.72219589 546.77775671 118.15570242 548.86174213 120.58129883 550.98022461 C128.28156585 557.66689819 136.48809514 563.39984288 145 569 C145.59522461 569.40009277 146.19044922 569.80018555 146.80371094 570.21240234 C174.80048332 588.98882108 206.4133078 602.82867655 239.24365234 610.36474609 C242.01968648 611.00453713 244.78459841 611.68229256 247.55078125 612.36328125 C310.17099966 627.3613851 384.89543012 620.83793908 442.17431641 590.94287109 C444.80509986 589.58420759 447.46033076 588.27633857 450.11450195 586.96411133 C475.78506202 574.25127361 499.23894249 558.39042034 520.09375 538.71875 C522.47379805 536.49225344 524.88813685 534.35426882 527.375 532.25 C530.57099136 529.47925489 533.31436284 526.49314079 536.04296875 523.265625 C538.32699715 520.62144043 540.72652547 518.10328634 543.125 515.5625 C553.23999809 504.66901776 562.03244118 492.53032569 570 480 C570.58394531 479.11699219 571.16789063 478.23398437 571.76953125 477.32421875 C576.7211049 469.62061259 580.95811906 461.55151588 585.1875 453.4375 C585.78191895 452.30175537 586.37633789 451.16601074 586.98876953 449.99584961 C590.70431683 442.796521 594.00052594 435.52418731 597 428 C597.50144531 426.783125 598.00289062 425.56625 598.51953125 424.3125 C606.22756138 404.56503913 611.65788344 383.91934474 615 363 C615.21269531 361.69804687 615.42539062 360.39609375 615.64453125 359.0546875 C617.7920405 344.9954543 618.18647901 331.08593515 618.18530273 316.8918457 C618.18747772 313.9674599 618.20566343 311.04345954 618.22460938 308.11914062 C618.27420628 291.75147067 617.11844493 275.62019713 614.1875 259.5 C614.01718262 258.54843018 613.84686523 257.59686035 613.67138672 256.61645508 C605.34179674 211.4634797 586.45438718 168.76805203 559 132 C558.5673584 131.41186523 558.1347168 130.82373047 557.68896484 130.21777344 C552.36949237 122.99571592 546.66126508 116.25243381 540.53125 109.71484375 C538.40341477 107.4326748 536.34338843 105.11783128 534.3125 102.75 C528.38901011 95.93798662 521.87733702 89.83313402 515 84 C513.69095703 82.87464844 513.69095703 82.87464844 512.35546875 81.7265625 C500.27509608 71.47360899 487.49761812 62.29316301 474 54 C473.34273926 53.59394531 472.68547852 53.18789063 472.00830078 52.76953125 C462.39880851 46.8671736 452.62389966 41.67007092 442.33129883 37.0625 C440.59266342 36.27010904 438.86494984 35.45367041 437.14331055 34.625 C428.72235985 30.60954091 420.15842406 27.41028644 411.3125 24.5 C410.59490509 24.262883 409.87731018 24.02576599 409.13796997 23.78146362 C395.59700506 19.33082957 382.0426264 15.53876826 368 13 C366.86030762 12.79262207 365.72061523 12.58524414 364.54638672 12.37158203 C320.48187737 4.77218131 275.09847605 7.67580311 232 19 Z " fill="#FEFDFE" transform="translate(0,0)"/>
<path d="M0 0 C0.64698696 -0.00551417 1.29397392 -0.01102833 1.96056655 -0.0167096 C4.13777359 -0.03035122 6.31384804 -0.01538408 8.49103451 -0.00063419 C10.06390271 -0.00452542 11.6367674 -0.01016442 13.20962375 -0.01740509 C17.53891865 -0.03220342 21.86785144 -0.02195273 26.19713485 -0.00766838 C30.863169 0.00341267 35.52915115 -0.00849161 40.19518185 -0.01751041 C49.33846937 -0.03146416 58.48161906 -0.02387112 67.62490005 -0.00883483 C78.26498286 0.00799907 88.90503108 0.00481836 99.54512309 0.00107109 C118.52467499 -0.00481133 137.5041606 0.00937943 156.48369503 0.03401852 C174.91536093 0.05794379 193.34693827 0.06502195 211.77861691 0.05452633 C231.83403522 0.04312662 251.88941255 0.04117507 271.94483036 0.05562443 C274.08180296 0.05715032 276.21877557 0.05867068 278.35574818 0.06018543 C279.4072721 0.06094325 280.45879603 0.06170106 281.54218431 0.06248184 C288.96526061 0.06723173 296.38831866 0.06536827 303.81139469 0.06112003 C312.85236734 0.05620216 321.89325613 0.06213844 330.93420953 0.08201433 C335.5502317 0.09191107 340.16612596 0.09696587 344.78215504 0.08912182 C349.00306473 0.08209574 353.22371562 0.08879702 357.44459104 0.10672545 C358.97613831 0.11078999 360.50770895 0.10973676 362.0392477 0.10320658 C364.11240679 0.09511976 366.18468033 0.1052894 368.25778198 0.12025452 C369.4118621 0.12128365 370.56594221 0.12231278 371.75499445 0.12337309 C374.56597042 0.50057125 374.56597042 0.50057125 376.43663698 1.76948494 C377.81275181 3.87884738 377.94179689 5.06894169 377.94349384 7.578269 C377.95131709 8.4114402 377.95914033 9.2446114 377.96720064 10.1030302 C377.96050847 11.01829102 377.95381631 11.93355183 377.94692135 12.87654781 C377.95160132 13.84887985 377.95628129 14.82121189 377.96110308 15.82300854 C377.9731123 19.09587468 377.96357262 22.36832667 377.95415401 25.64119625 C377.95821708 27.98157147 377.96355746 30.32194477 377.97008419 32.66231441 C377.98379511 39.0299513 377.97844353 45.39744284 377.96894693 51.76508236 C377.96213718 57.74440133 377.96732621 63.72370677 377.97172852 69.70302534 C377.98028788 82.26737804 377.97043974 94.83166512 377.95432742 107.39600706 C377.94092372 118.18219674 377.94325166 128.96828957 377.9570837 139.7544775 C377.97312989 152.27315905 377.97946386 164.79178305 377.97024691 177.31047344 C377.96549883 183.93981703 377.96496948 190.56910656 377.97485638 197.19844723 C377.98350011 203.42989423 377.97755158 209.6611577 377.96017361 215.8925848 C377.95619488 218.1843806 377.95736633 220.47619176 377.9639616 222.76798153 C377.97211244 225.88706361 377.96193375 229.00555091 377.94692135 232.12459469 C377.95361351 233.0398555 377.96030568 233.95511631 377.96720064 234.8981123 C377.95937739 235.73128349 377.95155415 236.56445469 377.94349384 237.4228735 C377.94276326 238.50320669 377.94276326 238.50320669 377.94201791 239.6053648 C377.45223825 242.07375936 376.52732101 242.96930331 374.56597042 244.50057125 C372.1978035 244.86971474 372.1978035 244.86971474 369.34583187 244.8613348 C368.26469616 244.86545879 367.18356045 244.86958279 366.06966305 244.87383175 C364.29049999 244.85765301 364.29049999 244.85765301 362.47539425 244.84114742 C361.22649914 244.8415855 359.97760403 244.84202358 358.69086361 244.84247494 C355.26531852 244.84074155 351.84031414 244.82568443 348.41486478 244.80475307 C344.83542263 244.786014 341.25597347 244.78423802 337.67648983 244.78067684 C330.89790399 244.7713482 324.11946311 244.74672343 317.34094113 244.71662837 C309.62398927 244.68310977 301.90703054 244.66660476 294.19002402 244.65154207 C278.31525551 244.62017451 262.44063165 244.56739821 246.56597042 244.50057125 C246.43319698 245.16443844 246.30042355 245.82830563 246.16362667 246.51229 C245.29774125 250.84171708 244.43185584 255.17114417 243.56597042 259.50057125 C244.13702511 259.4916888 244.7080798 259.48280636 245.29643917 259.47365475 C251.26655169 259.38482085 257.23647492 259.3246882 263.2070837 259.28084469 C265.43209624 259.26079079 267.65705649 259.2335406 269.88188839 259.19881344 C273.08921407 259.15002191 276.29583993 259.12753963 279.50347042 259.10994625 C280.49024776 259.08930111 281.47702511 259.06865597 282.4937048 259.04738522 C289.71297763 259.0450658 295.37687837 260.34778765 300.62456417 265.5357275 C301.07960323 266.20475094 301.5346423 266.87377438 302.00347042 267.56307125 C302.47655636 268.23467281 302.9496423 268.90627438 303.43706417 269.5982275 C306.37480395 274.54867482 305.82489688 279.86285152 305.87847042 285.43807125 C305.90747433 286.44031734 305.93647823 287.44256344 305.96636105 288.47518063 C305.97473995 289.44133297 305.98311886 290.40748531 305.99175167 291.402915 C306.01362545 292.72537228 306.01362545 292.72537228 306.03594112 294.07454586 C305.37461419 297.48836702 304.37285734 298.43063011 301.56597042 300.50057125 C298.48333673 301.10254112 295.43675238 301.03997077 292.30425167 301.00850582 C291.35627209 301.01474578 290.4082925 301.02098575 289.43158627 301.0274148 C286.24696322 301.04340207 283.06309949 301.03071789 279.87847042 301.01814938 C277.59868071 301.02356793 275.3188945 301.03068908 273.03911495 301.03938961 C266.84084683 301.05765744 260.64284439 301.05054102 254.4445715 301.03787327 C247.96549914 301.02776358 241.4864499 301.03713329 235.00737667 301.04341793 C223.42833312 301.05116703 211.8494111 301.03871715 200.2703867 301.01838058 C189.76989625 301.0005093 179.26958268 301.00361333 168.76909542 301.02205563 C156.57779063 301.0434575 144.38661182 301.05143204 132.19528866 301.03960657 C125.74084379 301.03336248 119.2865208 301.03256124 112.8320837 301.04575253 C106.7647196 301.057286 100.69769034 301.04933079 94.63036251 301.0261755 C92.40026564 301.02087505 90.1701407 301.02242486 87.94005489 301.03122616 C84.90221598 301.04211224 81.86545865 301.02850158 78.82768917 301.00850582 C77.49520893 301.02189015 77.49520893 301.02189015 76.1358099 301.03554487 C70.18560626 300.95926284 70.18560626 300.95926284 67.01946163 298.61549282 C65.27281985 296.07401864 65.05100446 294.64591161 65.03472042 291.57869625 C65.02698605 290.16330563 65.02698605 290.16330563 65.01909542 288.71932125 C65.03456417 287.73963375 65.05003292 286.75994625 65.06597042 285.75057125 C65.0427673 284.30424313 65.0427673 284.30424313 65.01909542 282.82869625 C65.05907388 275.47266051 66.30575762 269.74233002 71.63628292 264.4419775 C72.3143298 263.98693844 72.99237667 263.53189938 73.69097042 263.06307125 C74.37417355 262.58998531 75.05737667 262.11689938 75.76128292 261.6294775 C78.82295746 259.71427416 80.60167569 259.37762807 84.1992712 259.38704586 C85.16011623 259.38712139 86.12096127 259.38719692 87.11092281 259.38727474 C88.15054165 259.39243603 89.19016048 259.39759731 90.26128292 259.402915 C91.32386318 259.40432995 92.38644344 259.4057449 93.48122311 259.40720272 C96.88450051 259.41281291 100.28771281 259.42536716 103.69097042 259.43807125 C105.99435489 259.44308494 108.29774039 259.44764807 110.60112667 259.45174313 C116.25609978 259.46278566 121.91102405 259.48005716 127.56597042 259.50057125 C125.58597042 252.57057125 125.58597042 252.57057125 123.56597042 245.50057125 C121.94620296 245.49692562 120.32643551 245.49327999 118.65758419 245.48952389 C103.41277305 245.45262569 88.16818584 245.39514788 72.92353344 245.31666851 C65.08559224 245.27684862 57.24775188 245.2444712 49.40972042 245.22957516 C42.57856768 245.21657383 35.74763653 245.18964838 28.91660857 245.14595819 C25.29912711 245.12330878 21.68191928 245.10766263 18.06436062 245.1086874 C14.02714783 245.10957028 9.99074455 245.07936873 5.95366573 245.04646969 C4.15184338 245.05401524 4.15184338 245.05401524 2.31362057 245.06171322 C1.21428188 245.04780041 0.1149432 245.0338876 -1.01770878 245.01955318 C-1.97268631 245.01586601 -2.92766384 245.01217884 -3.91158009 245.00837994 C-6.43402958 244.50057125 -6.43402958 244.50057125 -8.74080372 243.05648327 C-11.30840306 239.18071089 -10.98693078 235.64209453 -10.94196415 231.08699703 C-10.94820411 230.12268324 -10.95444407 229.15836945 -10.96087313 228.16483402 C-10.97686197 224.92493718 -10.96417556 221.68578653 -10.9516077 218.44588375 C-10.95702619 216.12668575 -10.9641473 213.80749119 -10.97284794 211.48830318 C-10.99111661 205.18260196 -10.98399899 198.87716188 -10.9713316 192.57145596 C-10.96122234 185.98027485 -10.9705915 179.38911649 -10.97687626 172.79793453 C-10.98542594 161.01849772 -10.97217512 149.23917101 -10.95183891 137.45975327 C-10.93396761 126.77733673 -10.93707163 116.09509404 -10.95551395 105.41268063 C-10.97691538 93.01042921 -10.98489059 80.60828868 -10.9730649 68.20602131 C-10.9668206 61.63979447 -10.96602012 55.07368742 -10.97921085 48.50746822 C-10.99074379 42.33504692 -10.98279008 36.16295477 -10.95963383 29.99056911 C-10.9543331 27.72177077 -10.95588367 25.45294484 -10.96468449 23.18415737 C-10.9755694 20.09377616 -10.96196121 17.0044584 -10.94196415 13.91414547 C-10.95088704 13.01026152 -10.95980992 12.10637756 -10.9690032 11.17510319 C-10.95857221 10.34752443 -10.94814122 9.51994568 -10.93739414 8.66728878 C-10.93674473 7.95406397 -10.93609532 7.24083916 -10.93542624 6.50600147 C-9.48520975 0.70558791 -5.33701264 0.00049631 0 0 Z M2.56597042 12.50057125 C2.56597042 85.10057125 2.56597042 157.70057125 2.56597042 232.50057125 C122.35597042 232.50057125 242.14597042 232.50057125 365.56597042 232.50057125 C365.56597042 159.90057125 365.56597042 87.30057125 365.56597042 12.50057125 C245.77597042 12.50057125 125.98597042 12.50057125 2.56597042 12.50057125 Z " fill="#FDF7FA" transform="translate(129.4340295791626,163.49942874908447)"/>
<path d="M0 0 C1.07667183 -0.0099852 1.07667183 -0.0099852 2.1750946 -0.02017212 C3.69572384 -0.03030463 5.21639759 -0.03498895 6.73706055 -0.03466797 C9.05527984 -0.03902689 11.37157275 -0.07529534 13.68945312 -0.11328125 C15.16796225 -0.11915237 16.64648041 -0.12311979 18.125 -0.125 C18.81475418 -0.13937103 19.50450836 -0.15374207 20.21516418 -0.16854858 C23.62131443 -0.13649403 25.66360409 0.27787358 28.61279297 2.02319336 C31.01848662 4.61227948 31.83222563 6.41549825 32.78125 9.80078125 C33.08095703 10.84814453 33.38066406 11.89550781 33.68945312 12.97460938 C33.98142578 14.06322266 34.27339844 15.15183594 34.57421875 16.2734375 C35.04118164 17.90055664 35.04118164 17.90055664 35.51757812 19.56054688 C36.84583735 24.31016831 37.83637066 28.39308787 37.76171875 33.3359375 C38.73724072 33.33225033 39.71276268 33.32856316 40.71784592 33.32476425 C64.43627464 33.23603142 88.15468188 33.1702656 111.87324142 33.12868881 C123.3432886 33.10804902 134.81322625 33.07990131 146.28320312 33.03417969 C156.27850391 32.99435535 166.27372538 32.968515 176.26910329 32.95958352 C181.56335977 32.95436132 186.85738932 32.94205777 192.15157318 32.91301727 C197.13213812 32.88591779 202.1123821 32.87748144 207.09301376 32.88350677 C208.92321643 32.88240409 210.75342955 32.87441774 212.58356857 32.8591156 C215.07863159 32.83927288 217.57247589 32.84397686 220.06756592 32.85491943 C220.79519473 32.84326807 221.52282354 32.8316167 222.27250171 32.81961226 C225.67431697 32.86006066 227.48154448 33.12814335 230.24675369 35.17898941 C231.76171875 37.3359375 231.76171875 37.3359375 231.6953125 40.328125 C231.4115187 41.67015116 231.09566977 43.00550529 230.76171875 44.3359375 C230.55434082 45.23731445 230.34696289 46.13869141 230.13330078 47.06738281 C229.3952152 50.20715936 228.61450292 53.3339138 227.82421875 56.4609375 C227.55931641 57.53214844 227.29441406 58.60335937 227.02148438 59.70703125 C226.76173828 60.74214844 226.50199219 61.77726562 226.234375 62.84375 C225.88258179 64.24584717 225.88258179 64.24584717 225.52368164 65.67626953 C224.76171875 68.3359375 224.76171875 68.3359375 223.78466797 70.72949219 C222.52249333 73.94547701 221.73596825 77.17356953 220.921875 80.53125 C220.57093004 81.96397866 220.21951278 83.3965917 219.86767578 84.82910156 C219.59591522 85.94073669 219.59591522 85.94073669 219.31866455 87.0748291 C217.84860237 93.04303989 216.30732365 98.99362516 214.77954102 104.94726562 C214.38996495 106.46689088 214.00130537 107.98675136 213.61352539 109.50683594 C210.03093166 123.54976499 210.03093166 123.54976499 208.171875 130.15625 C207.96828369 130.88344238 207.76469238 131.61063477 207.55493164 132.35986328 C206.56426639 134.82783637 205.6104329 136.40120756 203.76171875 138.3359375 C201.09237766 138.83257294 201.09237766 138.83257294 197.80921936 138.82800293 C195.94376213 138.84020119 195.94376213 138.84020119 194.0406189 138.85264587 C192.6599704 138.8415531 191.27932467 138.83011255 189.89868164 138.81835938 C188.44661594 138.82054489 186.99455199 138.82454109 185.54249573 138.83021545 C182.4141416 138.83878752 179.28613033 138.83498695 176.15779305 138.8217926 C171.21221269 138.80148554 166.26697929 138.8114202 161.32139587 138.8260498 C149.92930657 138.85510748 138.53731862 138.84434929 127.14521027 138.83335114 C116.70771616 138.82368175 106.27040227 138.82236843 95.83293909 138.85323191 C90.91565156 138.86662256 85.99888185 138.86062159 81.0816251 138.83986664 C78.02323862 138.83089114 74.96505251 138.83834519 71.90668297 138.85027885 C70.48769074 138.8524126 69.06866913 138.84767117 67.64972687 138.8355732 C65.71361253 138.81999561 63.77733758 138.83124029 61.84120178 138.84387207 C60.75738252 138.84236397 59.67356325 138.84085587 58.55690098 138.83930206 C55.08597417 139.45600077 53.91022174 140.59654082 51.76171875 143.3359375 C51.13671875 145.54427083 51.13671875 145.54427083 51.26171875 147.8359375 C51.25140625 148.58875 51.24109375 149.3415625 51.23046875 150.1171875 C51.97146133 153.2119212 53.31182903 154.33805142 55.76171875 156.3359375 C58.43750545 156.93016705 58.43750545 156.93016705 61.42359924 156.83473206 C63.15445267 156.84909805 63.15445267 156.84909805 64.92027283 156.86375427 C66.81320824 156.84913902 66.81320824 156.84913902 68.74438477 156.83422852 C70.08984986 156.83805238 71.43531088 156.84367201 72.78076172 156.85095215 C75.67555479 156.86289987 78.56998515 156.8624161 81.46478462 156.85235786 C86.04053439 156.8368023 90.61591118 156.85047046 95.19163513 156.86839294 C104.07634791 156.89921284 112.96094677 156.90071366 121.84570312 156.89874268 C133.15872601 156.89734972 144.47166165 156.90764299 155.78461975 156.9473204 C160.33498039 156.96227684 164.88501144 156.96196755 169.43537724 156.94984257 C172.26315781 156.9451404 175.09081151 156.95263749 177.91857147 156.96338654 C179.85861994 156.96694951 181.79867767 156.95549718 183.73869324 156.94364929 C184.8897757 156.9504068 186.04085815 156.95716431 187.2268219 156.96412659 C188.22914636 156.96354028 189.23147081 156.96295397 190.26416874 156.96234989 C192.76171875 157.3359375 192.76171875 157.3359375 194.58030605 158.64042568 C196.58331939 161.5150628 196.18284024 163.96696555 195.76171875 167.3359375 C194.13671875 169.2734375 194.13671875 169.2734375 191.76171875 170.3359375 C188.51171875 170.5234375 188.51171875 170.5234375 185.76171875 170.3359375 C186.09171875 170.9959375 186.42171875 171.6559375 186.76171875 172.3359375 C187.32658113 178.37561987 187.15154363 183.13013501 183.76171875 188.3359375 C183.20484375 189.2021875 182.64796875 190.0684375 182.07421875 190.9609375 C177.63338847 195.52179022 173.01313307 197.56217076 166.63671875 197.7734375 C161.25595836 197.50234576 157.74317686 196.34617197 153.87890625 192.42578125 C146.55903314 184.26130739 147.76171875 183.92806806 147.76171875 170.3359375 C131.92171875 170.3359375 116.08171875 170.3359375 99.76171875 170.3359375 C100.09171875 170.9959375 100.42171875 171.6559375 100.76171875 172.3359375 C101.55209217 179.04282053 101.204285 184.14037988 97.19140625 189.68359375 C93.67424366 193.74851117 89.60332394 197.00541847 84.17578125 197.63671875 C74.35701901 197.67797405 74.35701901 197.67797405 69.76171875 194.3359375 C61.90927998 186.49982397 61.90927998 186.49982397 61.62890625 180.48828125 C61.63148438 179.42738281 61.6340625 178.36648438 61.63671875 177.2734375 C61.63285156 175.67822266 61.63285156 175.67822266 61.62890625 174.05078125 C61.76171875 171.3359375 61.76171875 171.3359375 62.76171875 169.3359375 C61.83552734 169.44035156 61.83552734 169.44035156 60.890625 169.546875 C54.52937068 169.95353053 50.78683361 168.87833783 45.67578125 165.05859375 C41.40371549 161.21373457 39.03558581 157.06420809 38.453125 151.26171875 C38.19925603 144.14569469 38.19197717 139.29929347 43.1015625 133.890625 C49.03307553 128.3359375 49.03307553 128.3359375 51.76171875 128.3359375 C49.87557969 120.56198596 47.79956243 112.8754756 45.51171875 105.2109375 C42.97337996 96.61630638 40.56443201 87.99657898 38.26171875 79.3359375 C35.52250554 69.05072235 32.60943423 58.82779389 29.60546875 48.6171875 C27.48408323 41.40633759 25.39916897 34.18524785 23.32421875 26.9609375 C22.96980713 25.7352002 22.61539551 24.50946289 22.25024414 23.24658203 C21.92531982 22.11333496 21.60039551 20.98008789 21.265625 19.8125 C20.97502197 18.80268066 20.68441895 17.79286133 20.38500977 16.75244141 C19.76171875 14.3359375 19.76171875 14.3359375 19.76171875 12.3359375 C19.0253418 12.35164795 18.28896484 12.3673584 17.53027344 12.38354492 C14.19083346 12.44594222 10.8515162 12.48494368 7.51171875 12.5234375 C6.35285156 12.54857422 5.19398438 12.57371094 4 12.59960938 C2.88496094 12.60927734 1.76992187 12.61894531 0.62109375 12.62890625 C-0.91853027 12.65247192 -0.91853027 12.65247192 -2.48925781 12.67651367 C-5.66027617 12.2836566 -7.02010243 11.61718475 -9.23828125 9.3359375 C-9.61328125 5.7734375 -9.61328125 5.7734375 -9.23828125 2.3359375 C-6.43187214 -0.47047161 -3.75802945 0.0120203 0 0 Z " fill="#FDF5FA" transform="translate(204.23828125,187.6640625)"/>
<path d="M0 0 C13.80681525 -0.66231955 27.61681263 4.29164619 38.1953125 13.12890625 C42.96265618 17.58668216 46.25084252 22.37525947 48.98828125 28.28515625 C49.354375 29.06117188 49.72046875 29.8371875 50.09765625 30.63671875 C52.78627746 38.6318292 51.63093565 47.64724575 48.125 55.17578125 C46.58106818 58.04080936 44.94232223 60.67976827 42.98828125 63.28515625 C42.30765625 64.25453125 41.62703125 65.22390625 40.92578125 66.22265625 C35.45169528 72.64288054 27.01313364 76.9784173 18.98828125 79.28515625 C18.03308594 79.59066406 18.03308594 79.59066406 17.05859375 79.90234375 C3.8709733 83.53515995 -10.777724 81.90833434 -22.9296875 75.82421875 C-25.37093517 74.40346309 -27.69570162 72.9001567 -30.01171875 71.28515625 C-31.34203125 70.41890625 -31.34203125 70.41890625 -32.69921875 69.53515625 C-40.25790242 62.18076133 -44.994195 54.02106694 -45.36108398 43.47705078 C-45.5109339 31.02951786 -42.5485078 23.27093687 -34.078125 14.21875 C-24.48404286 4.94153663 -13.00727956 1.23155825 0 0 Z " fill="#C32B6D" transform="translate(331.01171875,232.71484375)"/>
<path d="M0 0 C0.84195608 -0.00779995 1.68391216 -0.01559991 2.55138206 -0.02363622 C5.37145168 -0.04357331 8.19017438 -0.02778523 11.01025391 -0.01205444 C13.03241768 -0.0188298 15.05457529 -0.02773247 17.07672119 -0.03860474 C22.56847488 -0.06141419 28.05975933 -0.05255475 33.5515213 -0.03670931 C39.29607924 -0.02405895 45.04059675 -0.03578802 50.78515625 -0.04364014 C60.43252788 -0.05273919 70.07970819 -0.04074196 79.72705078 -0.01693726 C90.88403086 0.01027437 102.04055411 0.0014604 113.19752312 -0.02606928 C122.77303417 -0.04875194 132.34840761 -0.05196452 141.92393684 -0.03887594 C147.64457819 -0.03107684 153.36500474 -0.03005259 159.08563232 -0.04655838 C164.46365516 -0.06099147 169.84108847 -0.05100222 175.21904755 -0.0220871 C177.19393687 -0.01547013 179.16887573 -0.01738433 181.14374542 -0.02840042 C183.83771318 -0.04204339 186.52978617 -0.02495603 189.22363281 0 C190.00719336 -0.01115361 190.7907539 -0.02230722 191.5980587 -0.03379881 C195.22532455 0.03148503 197.50339842 0.57075916 200.63607788 2.4246006 C202.61181641 5.63491821 202.61181641 5.63491821 202.61181641 17.63491821 C131.33181641 17.63491821 60.05181641 17.63491821 -13.38818359 17.63491821 C-13.38818359 5.63491821 -13.38818359 5.63491821 -11.41244507 2.4246006 C-7.55651736 0.14275891 -4.3587831 -0.06204519 0 0 Z " fill="#B72462" transform="translate(220.38818359375,434.3650817871094)"/>
<path d="M0 0 C3.875 0.6875 3.875 0.6875 5.859375 2.84765625 C8.07421004 6.02804954 10.140706 9.21891199 11.875 12.6875 C15.40540971 13.76197252 18.97023254 14.61631452 22.5546875 15.4921875 C25.875 16.6875 25.875 16.6875 27.8828125 18.5078125 C29.20069132 21.4029951 28.95819328 22.71805634 27.875 25.6875 C26.28125 27.546875 26.28125 27.546875 24.375 29.4375 C20.09302926 34.56196803 20.11635623 39.4237113 20.2265625 45.83496094 C20.25609693 51.27175789 20.25609693 51.27175789 18.02734375 53.703125 C14.90034371 55.13325932 13.17948142 54.57716808 9.875 53.6875 C8.53877379 53.15300952 7.20554898 52.61097057 5.875 52.0625 C2.12994818 50.61280252 -0.19386219 50.51652278 -4.125 51.6875 C-5.28 52.22375 -6.435 52.76 -7.625 53.3125 C-11.46162914 54.81974716 -13.22637911 54.86615283 -17.125 53.6875 C-17.785 53.0275 -18.445 52.3675 -19.125 51.6875 C-19.07907817 49.76504516 -19.02251927 47.841835 -18.89453125 45.9230957 C-18.34290558 38.52523007 -18.34290558 38.52523007 -20.8984375 31.7734375 C-23.05592549 29.49016692 -23.05592549 29.49016692 -25.375 27.64453125 C-27.125 25.6875 -27.125 25.6875 -27.5625 22.63671875 C-27.125 19.6875 -27.125 19.6875 -26.015625 17.90625 C-23.42040215 16.23329642 -20.88783909 15.83210743 -17.875 15.1875 C-12.28656454 13.60951544 -9.94348405 11.94153785 -6.875 7 C-5.93421973 5.24185866 -5.01084377 3.47395159 -4.125 1.6875 C-3.125 0.6875 -3.125 0.6875 0 0 Z " fill="#FCF4F9" transform="translate(333.125,246.3125)"/>
<path d="M0 0 C32.34 0 64.68 0 98 0 C95 14 95 14 94 15 C91.16959328 15.09520906 88.36365007 15.12553631 85.53295898 15.11352539 C84.64523804 15.11367142 83.75751709 15.11381744 82.84289551 15.1139679 C79.89393716 15.11326843 76.94504113 15.10547448 73.99609375 15.09765625 C71.95728083 15.09579219 69.91846746 15.09436823 67.87965393 15.09336853 C62.50215426 15.08954241 57.12468142 15.07971132 51.74719238 15.06866455 C46.26440799 15.05845245 40.78161928 15.05387134 35.29882812 15.04882812 C24.53254027 15.03808914 13.76627236 15.02101159 3 15 C2.01 10.05 1.02 5.1 0 0 Z " fill="#BA2A68" transform="translate(266,408)"/>
<path d="M0 0 C0.64788575 -0.00461538 1.2957715 -0.00923075 1.96329015 -0.01398599 C4.14355125 -0.02460989 6.32264078 -0.00660171 8.50284195 0.01117325 C10.07784593 0.00942957 11.65284878 0.0059284 13.22784543 0.00081658 C17.56295559 -0.00814724 21.89767208 0.00789938 26.23273206 0.02792883 C30.90482542 0.04516928 35.57689578 0.03935955 40.24901199 0.03631973 C48.34611414 0.03422021 56.44308756 0.04679232 64.54015732 0.06927109 C76.24720397 0.10175062 87.95418824 0.11219396 99.66127506 0.11722305 C118.65425535 0.12598206 137.647167 0.15261408 156.64011002 0.1904335 C175.09225495 0.22713791 193.54438126 0.25545736 211.99655533 0.27246475 C213.70204696 0.27404109 213.70204696 0.27404109 215.44199297 0.27564928 C221.14584146 0.28086935 226.84969009 0.2859242 232.5535388 0.29089689 C279.88827014 0.33237779 327.22292697 0.40284272 374.55759048 0.49219131 C374.55759048 0.82219131 374.55759048 1.15219131 374.55759048 1.49219131 C373.75428146 1.49354784 372.95097243 1.49490437 372.1233207 1.49630201 C324.55900809 1.57687535 276.99472493 1.66779823 229.43045843 1.77224293 C223.72495183 1.78476246 218.01944505 1.79719513 212.31393814 1.80957413 C211.17802915 1.81204012 210.04212016 1.81450612 208.87178968 1.81704684 C190.45648152 1.85681808 172.04116718 1.88954606 153.62584104 1.91969113 C134.74330556 1.95075703 115.86079638 1.98934541 96.97829044 2.03498137 C85.317914 2.06292357 73.65755689 2.08493164 61.99715589 2.09945382 C54.01143965 2.10996038 46.02576074 2.1277447 38.04007258 2.15135835 C33.42625706 2.16478315 28.81249409 2.17489745 24.19865799 2.17640495 C19.98076755 2.17785356 15.76300386 2.18837033 11.54515229 2.20632572 C10.01350545 2.21120468 8.48184337 2.21265784 6.95019032 2.21047013 C4.87940326 2.20799638 2.80902699 2.21762701 0.73828697 2.23047829 C-0.99209857 2.23389577 -0.99209857 2.23389577 -2.7574414 2.23738229 C-5.59385717 2.2188802 -5.59385717 2.2188802 -7.44240952 4.49219131 C-7.64845754 7.58771396 -7.72745002 10.59483067 -7.72088242 13.692173 C-7.72957102 15.14031381 -7.72957102 15.14031381 -7.73843515 16.61770999 C-7.75552512 19.87294142 -7.75831937 23.12803184 -7.76125717 26.3833046 C-7.77054914 28.70869676 -7.7807167 31.03408557 -7.79169846 33.35947037 C-7.81909495 39.68972142 -7.83417636 46.01995012 -7.84712648 52.350245 C-7.86113699 58.29033002 -7.88427796 64.23037336 -7.90739684 70.17042886 C-7.95289773 81.93798314 -7.98949887 93.70554768 -8.02053452 105.47314835 C-8.05070658 116.90610939 -8.08505064 128.33904532 -8.1250267 139.77197647 C-8.12748825 140.47638198 -8.1299498 141.18078749 -8.13248594 141.90653862 C-8.14486028 145.44023841 -8.15731687 148.97393791 -8.16981435 152.50763726 C-8.27343149 181.83578562 -8.36247067 211.16396889 -8.44240952 240.49219131 C-7.45240952 240.82219131 -6.46240952 241.15219131 -5.44240952 241.49219131 C-5.44240952 242.15219131 -5.44240952 242.81219131 -5.44240952 243.49219131 C37.45759048 243.49219131 80.35759048 243.49219131 124.55759048 243.49219131 C124.22759048 244.15219131 123.89759048 244.81219131 123.55759048 245.49219131 C106.67663138 245.45503535 89.79592617 245.39519068 72.9151535 245.30828857 C65.07721231 245.26846868 57.23937194 245.23609126 49.40134048 245.22119522 C42.57018775 245.2081939 35.73925659 245.18126844 28.90822864 245.13757825 C25.29074717 245.11492884 21.67353935 245.09928269 18.05598068 245.10030746 C14.01876789 245.10119035 9.98236461 245.07098879 5.9452858 245.03808975 C4.14346344 245.0456353 4.14346344 245.0456353 2.30524063 245.05333328 C1.20590195 245.03942047 0.10656326 245.02550766 -1.02608871 245.01117325 C-1.98106625 245.00748608 -2.93604378 245.0037989 -3.91996002 245 C-6.44240952 244.49219131 -6.44240952 244.49219131 -8.74918365 243.04810333 C-11.316783 239.17233096 -10.99531072 235.6337146 -10.95034409 231.0786171 C-10.95658405 230.1143033 -10.96282401 229.14998951 -10.96925306 228.15645409 C-10.98524191 224.91655724 -10.97255549 221.6774066 -10.95998764 218.43750381 C-10.96540612 216.11830582 -10.97252723 213.79911126 -10.98122787 211.47992325 C-10.99949655 205.17422202 -10.99237893 198.86878194 -10.97971153 192.56307602 C-10.96960228 185.97189492 -10.97897143 179.38073655 -10.9852562 172.7895546 C-10.99380588 161.01011778 -10.98055506 149.23079108 -10.96021885 137.45137334 C-10.94234754 126.76895679 -10.94545157 116.0867141 -10.96389389 105.40430069 C-10.98529532 93.00204927 -10.99327053 80.59990874 -10.98144484 68.19764137 C-10.97520054 61.63141453 -10.97440006 55.06530749 -10.98759079 48.49908829 C-10.99912373 42.32666698 -10.99117002 36.15457483 -10.96801376 29.98218918 C-10.96271303 27.71339083 -10.96426361 25.4445649 -10.97306442 23.17577744 C-10.98394934 20.08539622 -10.97034114 16.99607846 -10.95034409 13.90576553 C-10.95926697 13.00188158 -10.96818986 12.09799763 -10.97738314 11.16672325 C-10.96695215 10.3391445 -10.95652116 9.51156574 -10.94577408 8.65890884 C-10.94512467 7.94568403 -10.94447526 7.23245922 -10.94380617 6.49762154 C-9.4919875 0.69079973 -5.34151763 -0.00701908 0 0 Z " fill="#FCC4E2" transform="translate(129.44240951538086,163.50780868530273)"/>
<path d="M0 0 C15.84 0 31.68 0 48 0 C46 11 46 11 44 16 C15.95731055 18.25676882 15.95731055 18.25676882 9.40625 13.2109375 C6.34232487 10.13957565 4.12227572 6.77032612 2 3 C1.34 2.01 0.68 1.02 0 0 Z " fill="#BB2B69" transform="translate(373,233)"/>
<path d="M0 0 C16.17 0 32.34 0 49 0 C47.35 1.65 45.7 3.3 44 5 C42.56943174 6.54978229 41.15188141 8.11172108 39.75 9.6875 C39.06421875 10.45449219 38.3784375 11.22148437 37.671875 12.01171875 C35.95377855 13.89798664 35.95377855 13.89798664 35 16 C24.77 16 14.54 16 4 16 C2.68 10.72 1.36 5.44 0 0 Z " fill="#C82D74" transform="translate(246,233)"/>
<path d="M0 0 C0.33 0 0.66 0 1 0 C1.00423194 1.19713245 1.00846388 2.39426491 1.01282406 3.6276741 C1.1134588 32.03320673 1.21916028 60.43871741 1.33111694 88.84420766 C1.34488683 92.33900939 1.35861388 95.83381128 1.37231445 99.32861328 C1.37504276 100.02437728 1.37777106 100.72014128 1.38058204 101.43698904 C1.42467955 112.7086665 1.46530546 123.98035395 1.50465261 135.25204888 C1.5450914 146.81437065 1.5893247 158.37667266 1.63687855 169.93896747 C1.66347401 176.43478228 1.688327 182.93059341 1.70907402 189.42642975 C1.7286425 195.53631984 1.75278701 201.64617449 1.78049088 207.75603294 C1.78986017 210.00225113 1.79753589 212.24847709 1.80341911 214.49470711 C1.81168229 217.55431073 1.82595972 220.6138284 1.84178162 223.67340088 C1.84275972 224.56834047 1.84373783 225.46328005 1.84474558 226.38533902 C1.85022002 227.20493438 1.85569446 228.02452975 1.8613348 228.86896133 C1.86399284 229.57524115 1.86665089 230.28152096 1.86938947 231.0092032 C1.93236478 233.04814996 1.93236478 233.04814996 2.61022907 235.12537742 C2.73885348 235.74400287 2.86747789 236.36262832 3 237 C0.45675374 240.32578358 -2.08560284 241.6948706 -6 243 C-8.56741047 243.23047829 -8.56741047 243.23047829 -11.34675598 243.20254517 C-12.40539856 243.19688034 -13.46404114 243.19121552 -14.55476379 243.18537903 C-15.70562973 243.16883774 -16.85649567 243.15229645 -18.04223633 243.13525391 C-19.26216278 243.12579239 -20.48208923 243.11633087 -21.73898315 243.10658264 C-25.07551803 243.07871431 -28.4117218 243.04180739 -31.74810624 243.00085878 C-35.23806636 242.96016967 -38.72812276 242.93106629 -42.21818542 242.90072632 C-48.8231954 242.84155069 -55.42805316 242.77197762 -62.03291959 242.69865549 C-69.55397902 242.61566977 -77.07513467 242.54429551 -84.59632075 242.47388959 C-100.06435704 242.3288333 -115.53220802 242.16921792 -131 242 C-131.495 242.99 -131.495 242.99 -132 244 C-132 242.68 -132 241.36 -132 240 C-131.34308764 239.99853344 -130.68617529 239.99706688 -130.0093565 239.99555588 C-114.03544335 239.95852658 -98.06178526 239.89956381 -82.0880537 239.81609726 C-74.36330498 239.77626421 -66.63865875 239.74389351 -58.91381836 239.72900391 C-52.18192285 239.71600936 -45.45025248 239.68910141 -38.71848375 239.64538693 C-35.15301201 239.62272214 -31.58781846 239.60709229 -28.0222683 239.60811615 C-24.04480449 239.60899788 -20.06791117 239.57882066 -16.09057617 239.54589844 C-14.90446747 239.5509288 -13.71835876 239.55595917 -12.49630737 239.56114197 C-11.41517166 239.54722916 -10.33403595 239.53331635 -9.22013855 239.51898193 C-8.27898791 239.51529476 -7.33783728 239.51160759 -6.36816692 239.50780869 C-3.93858902 239.17187205 -3.93858902 239.17187205 -2.1986618 237.55522156 C-0.35539812 233.62588379 -0.57823671 229.8872418 -0.60127258 225.59747314 C-0.59462576 224.63442064 -0.58797893 223.67136814 -0.58113068 222.67913222 C-0.56244021 219.44385911 -0.56511008 216.20895385 -0.56762695 212.97363281 C-0.5586135 210.65779597 -0.54828732 208.34196392 -0.53674316 206.02613831 C-0.50909818 199.73110889 -0.49987844 193.4361698 -0.49388909 187.14108753 C-0.48452494 180.56535556 -0.45832317 173.98969158 -0.43388367 167.41400146 C-0.39463509 156.37448416 -0.36680153 145.33497755 -0.34643555 134.29541016 C-0.32543001 122.92461534 -0.29815865 111.55386403 -0.26245117 100.18310547 C-0.26025235 99.4822124 -0.25805352 98.78131934 -0.25578807 98.05918708 C-0.24471852 94.54301255 -0.23352569 91.02683841 -0.22227156 87.51066446 C-0.12906681 58.34048396 -0.0576997 29.17027189 0 0 Z " fill="#9F1F56" transform="translate(508,168)"/>
<path d="M0 0 C0.66 0 1.32 0 2 0 C2 3.96 2 7.92 2 12 C-69.28 12 -140.56 12 -214 12 C-214 8.7 -214 5.4 -214 2 C-213.67 2 -213.34 2 -213 2 C-213 4.64 -213 7.28 -213 10 C-142.71 10 -72.42 10 0 10 C0 6.7 0 3.4 0 0 Z " fill="#B23C70" transform="translate(421,440)"/>
<path d="M0 0 C7.26 0 14.52 0 22 0 C20.69339936 5.8797029 19.35159747 11.7266323 17.875 17.5625 C17.25625 20.016875 16.6375 22.47125 16 25 C10.72 25 5.44 25 0 25 C0.33 23.02 0.66 21.04 1 19 C1.08998394 16.64718473 1.13012411 14.29202979 1.125 11.9375 C1.12757813 10.75027344 1.13015625 9.56304687 1.1328125 8.33984375 C1.07548451 4.697097 1.07548451 4.697097 0 0 Z " fill="#BA2968" transform="translate(392,261)"/>
<path d="M0 0 C6.93 0 13.86 0 21 0 C20.67 2.64 20.34 5.28 20 8 C19.9164011 9.87359877 19.86946769 11.74954525 19.875 13.625 C19.87242187 14.50414062 19.86984375 15.38328125 19.8671875 16.2890625 C19.97523931 19.56636941 19.97523931 19.56636941 21 25 C16.05 25 11.1 25 6 25 C5.37346016 22.52121375 4.74874328 20.04199014 4.125 17.5625 C3.86396484 16.53092773 3.86396484 16.53092773 3.59765625 15.47851562 C2.30530864 10.33305753 1.15193416 5.18370373 0 0 Z " fill="#C32F71" transform="translate(254,261)"/>
<path d="M0 0 C0.66 0 1.32 0 2 0 C1.99907821 0.55878216 1.99815641 1.11756432 1.99720669 1.69327927 C1.97497417 15.38642133 1.95856713 29.07956018 1.94818783 42.77271652 C1.94299763 49.39503355 1.93597123 56.01733838 1.92456055 62.63964844 C1.91359302 69.04579037 1.90769417 75.45191976 1.90512276 81.85807037 C1.90329324 84.28653409 1.89972148 86.71499722 1.89426994 89.14345551 C1.86772431 101.47329024 1.91812967 113.75341491 2.73712826 126.06080246 C3.09969031 131.80061938 3.09969031 131.80061938 2 134 C1.90694707 136.62435 1.87421725 139.22181308 1.88647461 141.84619141 C1.88635407 142.66914389 1.88623354 143.49209637 1.88610935 144.3399868 C1.88685724 147.01053929 1.89447986 149.68102246 1.90234375 152.3515625 C1.90381355 153.99763963 1.90483403 155.64371723 1.90539551 157.28979492 C1.91064395 163.40153706 1.92460509 169.51326921 1.9375 175.625 C1.958125 189.27875 1.97875 202.9325 2 217 C44.57 217 87.14 217 131 217 C131 217.33 131 217.66 131 218 C87.77 218 44.54 218 0 218 C0 146.06 0 74.12 0 0 Z " fill="#DD2F7F" transform="translate(133,177)"/>
<path d="M0 0 C0.78568359 0.03351563 1.57136719 0.06703125 2.38085938 0.1015625 C3.17814453 0.11960937 3.97542969 0.13765625 4.796875 0.15625 C6.76288387 0.20334003 8.72827431 0.27508351 10.69335938 0.3515625 C9.37335938 5.6315625 8.05335938 10.9115625 6.69335938 16.3515625 C-2.21664063 16.3515625 -11.12664062 16.3515625 -20.30664062 16.3515625 C-18.65664063 14.7015625 -17.00664062 13.0515625 -15.30664062 11.3515625 C-14.24844401 10.17876856 -13.20411666 8.99312581 -12.18164062 7.7890625 C-11.7046875 7.23089844 -11.22773438 6.67273438 -10.73632812 6.09765625 C-9.21795035 4.3664493 -9.21795035 4.3664493 -8.16992188 2.15234375 C-5.55120684 -0.37853178 -3.53565493 -0.06018136 0 0 Z " fill="#B82664" transform="translate(393.306640625,297.6484375)"/>
<path d="M0 0 C15.61149657 -0.96070748 15.61149657 -0.96070748 19.21875 1.53515625 C20.625 3.5625 20.625 3.5625 21.796875 5.7578125 C23.16651923 8.3103313 24.77990449 9.94963379 26.875 11.9375 C27.93228444 12.94214907 28.97932072 13.95818239 30 15 C30 15.33 30 15.66 30 16 C21.42 16 12.84 16 4 16 C2.68 10.72 1.36 5.44 0 0 Z " fill="#C22A6C" transform="translate(264,298)"/>
<path d="M0 0 C0.66 0.66 1.32 1.32 2 2 C-3.28761062 9.40265487 -3.28761062 9.40265487 -7.6875 10.9375 C-8.8321875 11.4634375 -8.8321875 11.4634375 -10 12 C-10.89386164 14.54775306 -10.89386164 14.54775306 -11 17 C-11.99 17.33 -12.98 17.66 -14 18 C-16.15017528 18.74172877 -16.15017528 18.74172877 -18 20 C-18.36162029 21.32594105 -18.69728039 22.65938457 -19 24 C-22 25 -22 25 -25 25 C-27.34399511 27.2716253 -27.34399511 27.2716253 -29.625 30.1875 C-30.42164062 31.15042969 -31.21828125 32.11335938 -32.0390625 33.10546875 C-33.93689941 35.9068575 -34.6477881 37.67827739 -35 41 C-36.32 40.67 -37.64 40.34 -39 40 C-40.88391785 43.26545761 -41.49287967 46.28111761 -42 50 C-43.65 50 -45.3 50 -47 50 C-47.28875 50.598125 -47.5775 51.19625 -47.875 51.8125 C-50.02631192 55.99560651 -51.99076613 57.69469053 -56 60 C-56.66 60.66 -57.32 61.32 -58 62 C-58.99 61.67 -59.98 61.34 -61 61 C-48.92045611 46.67055914 -48.92045611 46.67055914 -43 40 C-42.32710937 39.23429687 -41.65421875 38.46859375 -40.9609375 37.6796875 C-28.46400628 23.59304065 -14.71507281 11.66859289 0 0 Z " fill="#D14386" transform="translate(129,70)"/>
<path d="M0 0 C1.09866416 -0.00018857 2.19732831 -0.00037714 3.32928532 -0.00057143 C7.01789467 0.00491265 10.70522946 0.04631068 14.39360046 0.08747864 C17.03471673 0.09874888 19.67577014 0.10803096 22.31689453 0.11482239 C28.00663433 0.1334218 33.69601666 0.1703903 39.38556862 0.21985435 C47.61164381 0.29134396 55.83768283 0.33510112 64.06397691 0.37210158 C77.41065753 0.43288531 90.75710055 0.51608079 104.1035614 0.61335754 C117.06802791 0.70780213 130.03249194 0.79169954 142.99711609 0.86140442 C143.79631729 0.86570503 144.59551848 0.87000565 145.4189379 0.87443658 C149.42831492 0.8959465 153.437693 0.91724898 157.44707167 0.93844831 C190.70641688 1.11457336 223.96543766 1.327065 257.22441101 1.56330872 C257.22441101 1.89330872 257.22441101 2.22330872 257.22441101 2.56330872 C256.37981307 2.56363477 256.37981307 2.56363477 255.51815253 2.56396741 C222.15771782 2.57747874 188.7974269 2.61693759 155.43707149 2.69016434 C151.43283545 2.69893125 147.42859898 2.70748103 143.42436218 2.71589661 C142.22858829 2.7184152 142.22858829 2.7184152 141.00865736 2.72098467 C128.09514204 2.74766572 115.18167111 2.75675054 102.26813105 2.75935014 C89.02090937 2.76240793 75.77381618 2.78433434 62.52665251 2.82383329 C54.35019638 2.84761654 46.17399662 2.85662341 37.99751063 2.84682182 C31.73124791 2.84088536 25.46532183 2.86118137 19.19913483 2.89136887 C16.62599424 2.89963234 14.05281004 2.89931685 11.47967339 2.88990593 C7.97326931 2.87834842 4.46832616 2.89730637 0.96203613 2.92407227 C-0.57444235 2.90806238 -0.57444235 2.90806238 -2.1419608 2.89172906 C-8.12735201 2.91516143 -8.12735201 2.91516143 -12.94669056 6.10326099 C-13.85199528 7.32098462 -13.85199528 7.32098462 -14.77558899 8.56330872 C-15.10558899 7.57330872 -15.43558899 6.58330872 -15.77558899 5.56330872 C-11.33688446 -0.42647222 -7.12063341 -0.12780697 0 0 Z " fill="#DE3080" transform="translate(132.7755889892578,160.4366912841797)"/>
<path d="M0 0 C1.98 0.33 3.96 0.66 6 1 C4.50832655 5.32182147 2.22714846 8.82884371 -0.4375 12.5 C-1.09359253 13.41096436 -1.09359253 13.41096436 -1.76293945 14.34033203 C-6.51320692 20.84406524 -11.70719951 26.93584564 -17 33 C-17.92232422 34.07314453 -17.92232422 34.07314453 -18.86328125 35.16796875 C-20.55740204 37.12894389 -22.27320632 39.06772148 -24 41 C-24.85464844 41.9590625 -25.70929687 42.918125 -26.58984375 43.90625 C-31.7563844 49.65441855 -37.0164965 55.08777878 -43 60 C-43.59039063 60.5053125 -44.18078125 61.010625 -44.7890625 61.53125 C-48.85520833 65 -48.85520833 65 -50 65 C-50 62.03 -50 59.06 -50 56 C-47.36 56 -44.72 56 -42 56 C-41.34 54.35 -40.68 52.7 -40 51 C-40.66 50.67 -41.32 50.34 -42 50 C-41.43410156 49.82984375 -40.86820313 49.6596875 -40.28515625 49.484375 C-39.55167969 49.24203125 -38.81820312 48.9996875 -38.0625 48.75 C-36.96615234 48.40195312 -36.96615234 48.40195312 -35.84765625 48.046875 C-33.8235126 47.15102078 -33.8235126 47.15102078 -33.18359375 45.015625 C-32.81533672 42.93057391 -32.81533672 42.93057391 -34 41 C-30.535 40.505 -30.535 40.505 -27 40 C-26.34 37.69 -25.68 35.38 -25 33 C-21.535 32.505 -21.535 32.505 -18 32 C-17.67 30.35 -17.34 28.7 -17 27 C-15.68 26.67 -14.36 26.34 -13 26 C-12.67 24.35 -12.34 22.7 -12 21 C-11.34 21 -10.68 21 -10 21 C-10 20.34 -10 19.68 -10 19 C-9.01 19 -8.02 19 -7 19 C-6.67 16.69 -6.34 14.38 -6 12 C-5.01 11.67 -4.02 11.34 -3 11 C-2.30341637 9.34561387 -1.63903117 7.67745682 -1 6 C0.625 4.1875 0.625 4.1875 2 3 C1.01 2.67 0.02 2.34 -1 2 C-0.67 1.34 -0.34 0.68 0 0 Z " fill="#9A214E" transform="translate(562,480)"/>
<path d="M0 0 C0.70125 0.78375 1.4025 1.5675 2.125 2.375 C5.09157086 5.08360818 7.1582516 6.01722715 11 7 C10.69320313 7.56203125 10.38640625 8.1240625 10.0703125 8.703125 C8.97042415 11.06346934 8.39904149 13.20465562 7.875 15.75 C7.70742188 16.54921875 7.53984375 17.3484375 7.3671875 18.171875 C7.24601562 18.77515625 7.12484375 19.3784375 7 20 C5.783125 19.814375 4.56625 19.62875 3.3125 19.4375 C-0.02977939 19.01006818 -2.71968417 19.07741117 -6 20 C-6.103125 18.783125 -6.20625 17.56625 -6.3125 16.3125 C-6.76219312 12.58930552 -7.78382778 10.08337005 -10 7 C-8.906875 6.5875 -7.81375 6.175 -6.6875 5.75 C-3.48984058 4.39714409 -1.79346574 3.05944156 0 0 Z " fill="#C32C6E" transform="translate(333,265)"/>
<path d="M0 0 C32.34 0 64.68 0 98 0 C97.34 2.31 96.68 4.62 96 7 C95.67 7 95.34 7 95 7 C95 5.35 95 3.7 95 2 C64.31 2 33.62 2 2 2 C1.67 2.66 1.34 3.32 1 4 C0.67 2.68 0.34 1.36 0 0 Z " fill="#B13469" transform="translate(266,408)"/>
<path d="M0 0 C2.4375 1.625 2.4375 1.625 4 4 C4.5625 6.9375 4.5625 6.9375 4 10 C1.51397551 13.36344489 0.08574477 14.80057749 -4.0625 15.5625 C-7 15 -7 15 -9.375 13.5 C-11.82483134 9.73102871 -11.5659239 7.45665069 -11 3 C-8.06403859 -0.7580306 -4.50318499 -0.56289812 0 0 Z " fill="#B62C67" transform="translate(375,358)"/>
<path d="M0 0 C2.5625 1.5 2.5625 1.5 4 4 C4.30725848 7.915576 3.87078514 10.96795835 1.3125 14 C-1.73518427 15.31791752 -3.71035082 15.47974051 -7 15 C-9.375 13.5 -9.375 13.5 -11 11 C-11.6293407 7.48559179 -11.63147635 4.2629527 -10 1 C-6.7311716 -0.6344142 -3.51994536 -0.61493021 0 0 Z " fill="#BC2D6A" transform="translate(289,358)"/>
<path d="M0 0 C-0.614435 5.22269753 -3.03389269 9.55982255 -5.375 14.1875 C-5.81328125 15.05866455 -6.2515625 15.9298291 -6.703125 16.82739258 C-9.90591738 23.08991475 -13.34363963 29.17922702 -17 35.1875 C-17.46841309 35.95924561 -17.93682617 36.73099121 -18.41943359 37.52612305 C-21.73880958 42.86940479 -21.73880958 42.86940479 -24 44 C-23.88557539 42.39504433 -23.75805306 40.79101881 -23.625 39.1875 C-23.55539062 38.29417969 -23.48578125 37.40085937 -23.4140625 36.48046875 C-23 34 -23 34 -21 31 C-20.01 31 -19.02 31 -18 31 C-18 30.01 -18 29.02 -18 28 C-17.01 27.34 -16.02 26.68 -15 26 C-14.63451555 24.67511887 -14.3062434 23.33981486 -14 22 C-13.525625 21.21625 -13.05125 20.4325 -12.5625 19.625 C-10.86672589 16.9942424 -10.86672589 16.9942424 -9.9375 13.75 C-9 11 -9 11 -7 10 C-5.94647157 7.69034152 -4.94280904 5.3570226 -4 3 C-4.66 2.67 -5.32 2.34 -6 2 C-3 0 -3 0 0 0 Z " fill="#98214E" transform="translate(592,437)"/>
<path d="M0 0 C0.33 0 0.66 0 1 0 C1 2.31 1 4.62 1 7 C0.01 7.495 0.01 7.495 -1 8 C-0.34 8.66 0.32 9.32 1 10 C1 12 1 14 1 16 C-0.32 16 -1.64 16 -3 16 C-3.99 16.33 -4.98 16.66 -6 17 C-7.03294319 19.15482615 -7.03294319 19.15482615 -7.6875 21.75 C-7.93886719 22.61109375 -8.19023438 23.4721875 -8.44921875 24.359375 C-8.99753428 26.98817853 -9.10108994 29.32352338 -9 32 C-9.8971875 31.690625 -9.8971875 31.690625 -10.8125 31.375 C-13.28450846 30.69328085 -13.28450846 30.69328085 -16 33 C-16.33 32.34 -16.66 31.68 -17 31 C-15.88667797 28.6134479 -14.71979292 26.35635762 -13.4375 24.0625 C-13.07052002 23.3917041 -12.70354004 22.7209082 -12.32543945 22.02978516 C-11.5776676 20.6643736 -10.82660913 19.3007568 -10.07226562 17.93896484 C-8.5915067 15.26132656 -7.14186455 12.56704346 -5.6875 9.875 C-3.87074377 6.53300143 -2.04021056 3.21176004 0 0 Z " fill="#C74382" transform="translate(54,152)"/>
<path d="M0 0 C0.99 0.33 1.98 0.66 3 1 C3 1.66 3 2.32 3 3 C45.9 3 88.8 3 133 3 C132.67 3.66 132.34 4.32 132 5 C115.08460267 4.89285964 98.1692533 4.78011615 81.25393867 4.66066074 C73.40026474 4.60532969 65.54658627 4.55184789 57.69287109 4.50268555 C50.84937276 4.45984226 44.00590786 4.41356391 37.16246116 4.36312145 C33.53729481 4.33652166 29.91213508 4.31166863 26.28693008 4.29092598 C22.24478467 4.26773343 18.20273334 4.2368735 14.16064453 4.20532227 C12.95223907 4.1995668 11.74383362 4.19381134 10.49880981 4.18788147 C9.40222046 4.17809265 8.3056311 4.16830383 7.17581177 4.15821838 C6.21899065 4.15176583 5.26216953 4.14531328 4.27635384 4.1386652 C2 4 2 4 0 3 C0 2.01 0 1.02 0 0 Z " fill="#FEE4F7" transform="translate(121,404)"/>
<path d="M0 0 C-0.433125 0.4125 -0.86625 0.825 -1.3125 1.25 C-3.0866646 2.9586196 -3.0866646 2.9586196 -4.3125 5.1875 C-6 7 -6 7 -8.875 7.125 C-9.90625 7.08375 -10.9375 7.0425 -12 7 C-14.76740335 7.77227173 -14.76740335 7.77227173 -17 9 C-17.33 9.66 -17.66 10.32 -18 11 C-17.34 11 -16.68 11 -16 11 C-16.33 11.99 -16.66 12.98 -17 14 C-17 13.34 -17 12.68 -17 12 C-18.65 11.34 -20.3 10.68 -22 10 C-22.33 11.32 -22.66 12.64 -23 14 C-23.66 14 -24.32 14 -25 14 C-29.31955368 14.9798161 -29.31955368 14.9798161 -32.375 17.9375 C-33.1450037 20.11932596 -33.1450037 20.11932596 -33 23 C-33.99 22.67 -34.98 22.34 -36 22 C-37.1875 18.9375 -37.1875 18.9375 -38 16 C-29.17250268 11.17281159 -20.29226196 6.52847628 -11.125 2.375 C-9.97572021 1.84326172 -9.97572021 1.84326172 -8.80322266 1.30078125 C-3.35867984 -1.11955995 -3.35867984 -1.11955995 0 0 Z " fill="#D73E87" transform="translate(200,32)"/>
<path d="M0 0 C-5.68777027 5.50483029 -11.83848446 10.1908605 -18.25 14.8125 C-19.03036621 15.37541748 -19.81073242 15.93833496 -20.61474609 16.51831055 C-31.23076946 24.10395007 -31.23076946 24.10395007 -34.3125 23.6875 C-34.869375 23.460625 -35.42625 23.23375 -36 23 C-34.35 22.67 -32.7 22.34 -31 22 C-31.33 20.35 -31.66 18.7 -32 17 C-30.9790625 16.87625 -30.9790625 16.87625 -29.9375 16.75 C-26.1253093 15.77667472 -23.35929671 14.04192545 -20 12 C-20 11.34 -20 10.68 -20 10 C-19.01 10 -18.02 10 -17 10 C-16.34 8.68 -15.68 7.36 -15 6 C-14.01 6 -13.02 6 -12 6 C-11.814375 5.401875 -11.62875 4.80375 -11.4375 4.1875 C-8.77273689 0.1324257 -4.55329805 -1.51776602 0 0 Z " fill="#98224F" transform="translate(512,546)"/>
<path d="M0 0 C-6.77964539 5.87569267 -14.84454692 9.98191115 -22.6875 14.25 C-23.3047998 14.5912793 -23.92209961 14.93255859 -24.55810547 15.28417969 C-28.62976134 17.46950099 -32.51646119 18.87192092 -37 20 C-37.33 18.68 -37.66 17.36 -38 16 C-36.3125 14.375 -36.3125 14.375 -34 13 C-31.25 13.8125 -31.25 13.8125 -29 15 C-28.67 14.34 -28.34 13.68 -28 13 C-24.85824497 11.0614703 -21.72352972 9.34016696 -18.3828125 7.76953125 C-17.49335938 7.35058594 -16.60390625 6.93164062 -15.6875 6.5 C-14.84574219 6.1184375 -14.00398438 5.736875 -13.13671875 5.34375 C-10.68426771 3.80144075 -10.13616131 2.60303623 -9 0 C-5.93109813 -1.53445094 -3.29905734 -0.54984289 0 0 Z " fill="#99204D" transform="translate(477,571)"/>
<path d="M0 0 C3.98671063 1.36687222 6.88494633 3.15195093 10 6 C10 6.66 10 7.32 10 8 C11.32 8.66 12.64 9.32 14 10 C14.08690253 14.43737712 14.14035926 18.87453634 14.1875 23.3125 C14.21263672 24.57513672 14.23777344 25.83777344 14.26367188 27.13867188 C14.27333984 28.34716797 14.28300781 29.55566406 14.29296875 30.80078125 C14.3086792 31.91622314 14.32438965 33.03166504 14.34057617 34.1809082 C14 37 14 37 12.66918945 38.76245117 C9.57986637 41.05289709 7.81950712 42.25292492 3.98828125 42.1953125 C3.23095703 42.18886719 2.47363281 42.18242187 1.69335938 42.17578125 C0.90767578 42.15902344 0.12199219 42.14226562 -0.6875 42.125 C-1.48478516 42.11597656 -2.28207031 42.10695313 -3.10351562 42.09765625 C-5.069139 42.07411585 -7.03460775 42.03824547 -9 42 C-9 41.67 -9 41.34 -9 41 C-3.72 41 1.56 41 7 41 C7.66 39.68 8.32 38.36 9 37 C9.33 36.67 9.66 36.34 10 36 C10.30985177 32.48820412 10.27859591 28.96126545 10.3125 25.4375 C10.35600586 23.97086914 10.35600586 23.97086914 10.40039062 22.47460938 C10.45545792 16.15034231 9.76856027 11.21477156 6 6 C4.09474698 4.13425077 2.14115727 2.60586796 0 1 C0 0.67 0 0.34 0 0 Z " fill="#A12357" transform="translate(424,424)"/>
<path d="M0 0 C0.66 0.33 1.32 0.66 2 1 C1.91621094 1.60328125 1.83242188 2.2065625 1.74609375 2.828125 C1.64425781 3.62734375 1.54242188 4.4265625 1.4375 5.25 C1.33308594 6.03890625 1.22867188 6.8278125 1.12109375 7.640625 C0.99972651 10.00532874 1.30366743 11.7511037 2 14 C1.34 14 0.68 14 0 14 C0 13.34 0 12.68 0 12 C-0.66 12 -1.32 12 -2 12 C-3.32985245 14.92567539 -4.05009148 17.35690182 -4.5 20.5625 C-4.95153166 23.6667802 -5.49201148 25.33884378 -7 28 C-8.3015797 30.96470931 -9 32.73381035 -9 36 C-11 37.6875 -11 37.6875 -13 39 C-14 37 -14 37 -13.55029297 35.03564453 C-13.28361816 34.24270996 -13.01694336 33.44977539 -12.7421875 32.6328125 C-12.44852295 31.75230225 -12.1548584 30.87179199 -11.85229492 29.96459961 C-11.36853394 28.5589978 -11.36853394 28.5589978 -10.875 27.125 C-10.39220581 25.70102905 -10.39220581 25.70102905 -9.8996582 24.24829102 C-7.05590813 15.9589116 -3.98936361 7.81626444 0 0 Z " fill="#DA3D87" transform="translate(36,185)"/>
<path d="M0 0 C0.33 0 0.66 0 1 0 C1.1964031 3.29119935 1.38060745 6.58296934 1.5625 9.875 C1.61857422 10.81214844 1.67464844 11.74929688 1.73242188 12.71484375 C1.78076172 13.61074219 1.82910156 14.50664062 1.87890625 15.4296875 C1.94960327 16.67081299 1.94960327 16.67081299 2.02172852 17.93701172 C2 20 2 20 1 22 C0.87773147 24.5622268 0.81434423 27.09908818 0.79467773 29.66259766 C0.78477814 30.45292892 0.77487854 31.24326019 0.76467896 32.05754089 C0.73302878 34.6763507 0.70829267 37.29517866 0.68359375 39.9140625 C0.66302726 41.72724892 0.64203087 43.54043052 0.62062073 45.35360718 C0.56536858 50.13098242 0.51597318 54.90840115 0.46777344 59.68585205 C0.41758134 64.55883668 0.36188333 69.43175798 0.30664062 74.3046875 C0.19902062 83.8697376 0.09758419 93.43484262 0 103 C-0.33 103 -0.66 103 -1 103 C-1.02318709 90.6040534 -1.04094757 78.20811198 -1.05181217 65.81214809 C-1.05702705 60.05599132 -1.0640994 54.2998494 -1.07543945 48.54370117 C-1.08631786 42.98700375 -1.09228735 37.43032061 -1.09487724 31.87361336 C-1.09672256 29.75537962 -1.10032598 27.63714664 -1.10573006 25.51891899 C-1.11300619 22.5483215 -1.11398816 19.57778273 -1.11352539 16.60717773 C-1.11712067 15.73467377 -1.12071594 14.8621698 -1.12442017 13.96322632 C-1.1164113 9.2011194 -0.79837913 4.69652955 0 0 Z " fill="#DD2F7F" transform="translate(134,289)"/>
<path d="M0 0 C0.8395372 0.00902344 1.6790744 0.01804688 2.54405212 0.02734375 C5.30986815 0.06301917 8.07352984 0.13445909 10.83862305 0.20629883 C12.75958288 0.23807274 14.68058093 0.26760851 16.60160828 0.29499817 C21.65084153 0.37299722 26.69898258 0.48136436 31.74749756 0.59606934 C36.90190662 0.70780211 42.05676954 0.79080128 47.21166992 0.8762207 C57.32104505 1.04797392 67.42949921 1.25181336 77.5378418 1.47583008 C77.5378418 1.80583008 77.5378418 2.13583008 77.5378418 2.47583008 C75.95716667 2.47796761 75.95716667 2.47796761 74.34455872 2.48014832 C64.41250732 2.49681947 54.48086559 2.53959665 44.54903126 2.60792065 C39.44294679 2.64220821 34.33716208 2.66730339 29.23095703 2.67138672 C24.30290841 2.67566586 19.37553619 2.70409672 14.44769859 2.74926186 C12.56788765 2.76224915 10.68799581 2.76654018 8.80814552 2.76198387 C6.17408892 2.75708655 3.54201586 2.78312997 0.90820312 2.81640625 C0.13136673 2.80778061 -0.64546967 2.79915497 -1.44584656 2.79026794 C-5.58242084 2.87784563 -7.2688736 3.31335784 -10.48530579 6.01704407 C-11.13766708 6.82844345 -11.79002838 7.63984283 -12.4621582 8.47583008 C-12.7921582 7.48583008 -13.1221582 6.49583008 -13.4621582 5.47583008 C-9.4110699 0.39888463 -6.20250951 -0.21559334 0 0 Z " fill="#E5378B" transform="translate(130.462158203125,160.524169921875)"/>
<path d="M0 0 C16.17 0 32.34 0 49 0 C44 5 44 5 42 6 C42.33 5.01 42.66 4.02 43 3 C22.705 2.505 22.705 2.505 2 2 C1.67 2.66 1.34 3.32 1 4 C0.67 2.68 0.34 1.36 0 0 Z " fill="#B43F74" transform="translate(246,233)"/>
<path d="M0 0 C0.33 0.66 0.66 1.32 1 2 C1.66 2 2.32 2 3 2 C3.29663458 7.73493523 2.93440741 10.92121794 0 16 C-0.68528045 17.65910004 -1.35891863 19.32332564 -2 21 C-1.01 21.33 -0.02 21.66 1 22 C1 22.33 1 22.66 1 23 C0.07767578 23.07347656 0.07767578 23.07347656 -0.86328125 23.1484375 C-1.67152344 23.22320312 -2.47976563 23.29796875 -3.3125 23.375 C-4.11300781 23.44460938 -4.91351563 23.51421875 -5.73828125 23.5859375 C-8.27224441 23.89564426 -8.27224441 23.89564426 -11 26 C-11.66 25.67 -12.32 25.34 -13 25 C-13.33 25.99 -13.66 26.98 -14 28 C-14.33 27.67 -14.66 27.34 -15 27 C-16.68183948 26.76712992 -18.3712416 26.58735834 -20.0625 26.4375 C-20.98160156 26.35371094 -21.90070313 26.26992188 -22.84765625 26.18359375 C-23.91306641 26.09271484 -23.91306641 26.09271484 -25 26 C-25 25.67 -25 25.34 -25 25 C-24.13117188 24.90203125 -23.26234375 24.8040625 -22.3671875 24.703125 C-13.42849914 23.69826214 -13.42849914 23.69826214 -6 19 C-4.43081239 16.72264006 -3.24495071 14.48990142 -2 12 C-1.67 11.34 -1.34 10.68 -1 10 C-0.77377919 8.29636178 -0.59111527 6.58671299 -0.4375 4.875 C-0.35371094 3.96492188 -0.26992188 3.05484375 -0.18359375 2.1171875 C-0.09271484 1.06917969 -0.09271484 1.06917969 0 0 Z " fill="#A8245A" transform="translate(391,360)"/>
<path d="M0 0 C-2 3 -2 3 -4.171875 3.5546875 C-5.44804687 3.71324219 -5.44804687 3.71324219 -6.75 3.875 C-10.38631489 4.48018297 -12.52348413 5.05483835 -15.1875 7.625 C-18.76129943 10.64287508 -20.4306757 10.32065434 -25 10 C-27.33824592 10.29692012 -29.67377689 10.62020847 -32 11 C-29 9 -29 9 -26.9375 8 C-24.83805638 7.04074983 -24.83805638 7.04074983 -23 5 C-19.75952283 3.72382904 -16.40021042 2.80240016 -13.0625 1.8125 C-12.14275391 1.52697266 -11.22300781 1.24144531 -10.27539062 0.94726562 C-8.94991211 0.54991211 -8.94991211 0.54991211 -7.59765625 0.14453125 C-6.78820557 -0.09934326 -5.97875488 -0.34321777 -5.14477539 -0.59448242 C-3 -1 -3 -1 0 0 Z " fill="#D9478B" transform="translate(235,20)"/>
<path d="M0 0 C-9.50473079 7.71980482 -25.00389008 12.60121405 -37 14 C-36.67 13.01 -36.34 12.02 -36 11 C-35.15695312 10.90203125 -34.31390625 10.8040625 -33.4453125 10.703125 C-32.34960938 10.55359375 -31.25390625 10.4040625 -30.125 10.25 C-28.48917969 10.04117188 -28.48917969 10.04117188 -26.8203125 9.828125 C-23.87221871 9.29064565 -23.87221871 9.29064565 -22.6171875 6.921875 C-22.41351563 6.28765625 -22.20984375 5.6534375 -22 5 C-20.68 5 -19.36 5 -18 5 C-16.32774271 4.69595322 -14.65919896 4.36871088 -13 4 C-13 3.34 -13 2.68 -13 2 C-4.57142857 -0.28571429 -4.57142857 -0.28571429 0 0 Z " fill="#97234F" transform="translate(440,591)"/>
<path d="M0 0 C1.093125 0.226875 2.18625 0.45375 3.3125 0.6875 C3.3125 1.3475 3.3125 2.0075 3.3125 2.6875 C-0.10934822 3.42709256 -3.53202285 4.16186742 -6.95703125 4.88671875 C-9.1048148 5.34776129 -11.25007793 5.82183482 -13.38671875 6.33203125 C-20.16879695 7.89022773 -26.75028373 7.88322084 -33.6875 7.6875 C-31.05047549 5.05047549 -29.3665165 5.10399243 -25.6875 4.6875 C-23.8621875 4.7184375 -23.8621875 4.7184375 -22 4.75 C-18.54612458 4.98245905 -18.54612458 4.98245905 -15.6875 2.6875 C-14.3675 2.6875 -13.0475 2.6875 -11.6875 2.6875 C-11.3575 2.0275 -11.0275 1.3675 -10.6875 0.6875 C-9.6975 0.6875 -8.7075 0.6875 -7.6875 0.6875 C-7.3575 1.3475 -7.0275 2.0075 -6.6875 2.6875 C-6.1615625 1.9140625 -6.1615625 1.9140625 -5.625 1.125 C-3.6875 -0.3125 -3.6875 -0.3125 0 0 Z " fill="#991E4D" transform="translate(375.6875,609.3125)"/>
<path d="M0 0 C1.50430158 0.37915798 3.00326251 0.77950379 4.5 1.1875 C5.75296875 1.51814453 5.75296875 1.51814453 7.03125 1.85546875 C9.5545889 2.8282823 11.25310064 3.77422867 13.4609375 5.2578125 C19.25712796 9.00261151 25.7067134 11.23852615 32.125 13.6875 C33.38699801 14.17701504 34.64871893 14.66724506 35.91015625 15.15820312 C41.24148729 17.22075115 46.56503674 19.22528685 52 21 C52 21.33 52 21.66 52 22 C44.39757353 21.55334581 38.04614653 18.91127623 31.0625 16 C29.87422607 15.51104248 28.68595215 15.02208496 27.46166992 14.51831055 C17.98866246 10.55640414 8.91191071 6.09072474 0 1 C0 0.67 0 0.34 0 0 Z " fill="#A0305E" transform="translate(169,582)"/>
<path d="M0 0 C0.66 0.66 1.32 1.32 2 2 C-0.0586217 5.08793255 -0.8553312 5.47838607 -4 7 C-4.33 7.66 -4.66 8.32 -5 9 C-6.7015625 9.7115625 -6.7015625 9.7115625 -8.4375 10.4375 C-12.19068113 11.70190988 -12.19068113 11.70190988 -14 15 C-14.99 16.485 -14.99 16.485 -16 18 C-17.32 18 -18.64 18 -20 18 C-20 17.34 -20 16.68 -20 16 C-20.66 15.67 -21.32 15.34 -22 15 C-14.74 10.05 -7.48 5.1 0 0 Z " fill="#D83F88" transform="translate(152,54)"/>
<path d="M0 0 C0 4.36580757 -2.27892618 6.72055554 -5 10 C-6.875 11.5625 -6.875 11.5625 -9 13 C-10.21965368 13.98616142 -11.42700154 14.9876418 -12.625 16 C-13.21539063 16.495 -13.80578125 16.99 -14.4140625 17.5 C-16.23476995 19.11020666 -16.23476995 19.11020666 -18 22 C-18.66 22 -19.32 22 -20 22 C-20 22.66 -20 23.32 -20 24 C-20.928125 24.12375 -20.928125 24.12375 -21.875 24.25 C-24.16150356 24.78035516 -24.16150356 24.78035516 -24.9375 26.875 C-26.37829236 29.75658472 -28.13479934 30.63902969 -31 32 C-31.66 31.67 -32.32 31.34 -33 31 C-23.64079422 22.54219314 -23.64079422 22.54219314 -18.9375 18.4375 C-18.29941406 17.87933594 -17.66132812 17.32117188 -17.00390625 16.74609375 C-15.57855473 15.50412079 -14.14834078 14.26771865 -12.71484375 13.03515625 C-8.03557772 8.96521034 -3.91190067 4.81464698 0 0 Z " fill="#F4DBE7" transform="translate(536,522)"/>
<path d="M0 0 C0.66 0.66 1.32 1.32 2 2 C-0.52531969 8.94462915 -4.07262193 16.53631096 -11 20 C-10.58680865 14.28565158 -8.28492925 11.03605532 -4.9375 6.625 C-4.46505859 5.98433594 -3.99261719 5.34367188 -3.50585938 4.68359375 C-2.34704805 3.11510165 -1.17484931 1.55651542 0 0 Z " fill="#D94088" transform="translate(67,133)"/>
<path d="M0 0 C1.32 0 2.64 0 4 0 C4.66 2.97 5.32 5.94 6 9 C8.64 9 11.28 9 14 9 C14 9.66 14 10.32 14 11 C14.66 11 15.32 11 16 11 C15.95875 10.071875 15.9175 9.14375 15.875 8.1875 C16 5 16 5 18 2 C17.67 1.34 17.34 0.68 17 0 C18.32 0 19.64 0 21 0 C20.69320313 0.56203125 20.38640625 1.1240625 20.0703125 1.703125 C18.97042415 4.06346934 18.39904149 6.20465562 17.875 8.75 C17.70742188 9.54921875 17.53984375 10.3484375 17.3671875 11.171875 C17.24601562 11.77515625 17.12484375 12.3784375 17 13 C15.783125 12.814375 14.56625 12.62875 13.3125 12.4375 C9.97022061 12.01006818 7.28031583 12.07741117 4 13 C3.896875 11.783125 3.79375 10.56625 3.6875 9.3125 C3.23780688 5.58930552 2.21617222 3.08337005 0 0 Z " fill="#A72961" transform="translate(323,272)"/>
<path d="M0 0 C0.66 0 1.32 0 2 0 C1.57396728 7.3845671 -0.987401 13.30047024 -4 20 C-4.4021875 20.91394531 -4.804375 21.82789063 -5.21875 22.76953125 C-6.13645483 24.8507547 -7.06312272 26.92735529 -8 29 C-8.33 29 -8.66 29 -9 29 C-8.45018084 22.95198929 -7.09570426 17.69398894 -5 12 C-4.34 12 -3.68 12 -3 12 C-2.814375 10.4221875 -2.814375 10.4221875 -2.625 8.8125 C-2.08859218 5.54041229 -1.36119965 2.99463924 0 0 Z " fill="#97214D" transform="translate(601,408)"/>
<path d="M0 0 C0.66 0 1.32 0 2 0 C1.55677807 7.23766805 0.13885185 13.7298144 -2.0625 20.625 C-2.34416016 21.53378906 -2.62582031 22.44257813 -2.91601562 23.37890625 C-3.60222683 25.58873894 -4.29692992 27.79548541 -5 30 C-5.33 30 -5.66 30 -6 30 C-6.66 27.69 -7.32 25.38 -8 23 C-7.34 22.34 -6.68 21.68 -6 21 C-4.98758315 19.67607028 -3.98560611 18.34400833 -3 17 C-4.32 16.67 -5.64 16.34 -7 16 C-6.37609375 15.81695312 -5.7521875 15.63390625 -5.109375 15.4453125 C-2.65991036 14.08337797 -2.65991036 14.08337797 -1.953125 10.7421875 C-1.72109375 9.46601563 -1.4890625 8.18984375 -1.25 6.875 C-1.00765625 5.59367187 -0.7653125 4.31234375 -0.515625 2.9921875 C-0.34546875 2.00476563 -0.1753125 1.01734375 0 0 Z " fill="#981F4D" transform="translate(609,378)"/>
<path d="M0 0 C0.33 0 0.66 0 1 0 C1.97806731 4.75696374 2.85228055 9.07521877 0.8359375 13.62890625 C-1.44970772 17.04611474 -3.9019082 20.27640281 -7 23 C-7.66 23 -8.32 23 -9 23 C-9 23.66 -9 24.32 -9 25 C-15.13443817 27.62904493 -18.63645276 28.515821 -25 26 C-25 25.67 -25 25.34 -25 25 C-24.29875 24.98582031 -23.5975 24.97164063 -22.875 24.95703125 C-15.11031822 24.56668719 -9.75564306 23.13027079 -4.43359375 17.27734375 C-0.5637786 11.90811304 -0.13115197 6.48606122 0 0 Z " fill="#A4265D" transform="translate(305,360)"/>
<path d="M0 0 C0.66 0.66 1.32 1.32 2 2 C0.08574219 2.07347656 0.08574219 2.07347656 -1.8671875 2.1484375 C-3.53648072 2.22346191 -5.20575046 2.29900988 -6.875 2.375 C-8.13763672 2.42140625 -8.13763672 2.42140625 -9.42578125 2.46875 C-10.63427734 2.52675781 -10.63427734 2.52675781 -11.8671875 2.5859375 C-12.61081543 2.6173584 -13.35444336 2.6487793 -14.12060547 2.68115234 C-16.24010974 2.85419551 -16.24010974 2.85419551 -18 5 C-20.6015625 5.1953125 -20.6015625 5.1953125 -23.625 5.125 C-25.12933594 5.09792969 -25.12933594 5.09792969 -26.6640625 5.0703125 C-27.43492187 5.04710937 -28.20578125 5.02390625 -29 5 C-22.81431345 -1.18568655 -8.2466685 -0.97391637 0 0 Z " fill="#B14274" transform="translate(341,233)"/>
<path d="M0 0 C2.31 0.33 4.62 0.66 7 1 C5.49087042 5.98012761 2.44338151 9.24259942 -1 13 C-1.33 12.01 -1.66 11.02 -2 10 C-2.99 9.67 -3.98 9.34 -5 9 C-1.25 7.875 -1.25 7.875 1 9 C0.67 6.03 0.34 3.06 0 0 Z " fill="#B62E69" transform="translate(370,289)"/>
<path d="M0 0 C15.20957364 -1.21947584 15.20957364 -1.21947584 19.25390625 1.53515625 C20.72667076 3.61789408 21.84913947 5.72596287 23 8 C24.08824772 9.36349539 25.21253073 10.69920487 26.375 12 C27.24125 12.99 28.1075 13.98 29 15 C23.48141541 13.66216131 20.14990193 9.4877635 17 5 C16.67 3.68 16.34 2.36 16 1 C8.08 1.495 8.08 1.495 0 2 C0 1.34 0 0.68 0 0 Z " fill="#B64777" transform="translate(264,298)"/>
<path d="M0 0 C0.99 0.33 1.98 0.66 3 1 C3 2.32 3 3.64 3 5 C1.576875 5.0928125 1.576875 5.0928125 0.125 5.1875 C-0.90625 5.455625 -1.9375 5.72375 -3 6 C-4.23290201 8.45704762 -4.23290201 8.45704762 -5 11 C-5.99 11.33 -6.98 11.66 -8 12 C-8.99 11.34 -9.98 10.68 -11 10 C-10.3125 8.125 -10.3125 8.125 -9 6 C-7.34561387 5.30341637 -5.67745682 4.63903117 -4 4 C-1.72808584 1.97959252 -1.72808584 1.97959252 0 0 Z " fill="#E43D8B" transform="translate(115,83)"/>
<path d="M0 0 C2.93230193 1.32120828 4.98664899 2.74638197 7.234375 5.0390625 C8.09482422 5.90917969 8.09482422 5.90917969 8.97265625 6.796875 C9.55917969 7.40015625 10.14570312 8.0034375 10.75 8.625 C11.35199219 9.23601563 11.95398438 9.84703125 12.57421875 10.4765625 C14.05405305 11.97988624 15.52764676 13.48934856 17 15 C16.34 15.66 15.68 16.32 15 17 C12.49195282 14.54976242 9.9949924 12.08852402 7.5 9.625 C6.78457031 8.92632813 6.06914063 8.22765625 5.33203125 7.5078125 C4.65527344 6.8375 3.97851562 6.1671875 3.28125 5.4765625 C2.65283203 4.85861816 2.02441406 4.24067383 1.37695312 3.60400391 C0 2 0 2 0 0 Z " fill="#B54072" transform="translate(90,521)"/>
<path d="M0 0 C0.66 0.33 1.32 0.66 2 1 C2 2.32 2 3.64 2 5 C2.66 5 3.32 5 4 5 C3.835 5.598125 3.67 6.19625 3.5 6.8125 C2.8885876 9.11344336 2.8885876 9.11344336 3 12 C2.67 12.33 2.34 12.66 2 13 C1.63239269 15.32817964 1.29758419 17.6618385 1 20 C0.67 20 0.34 20 0 20 C-0.74464946 13.12631267 -1.18225237 6.83079148 0 0 Z " fill="#CB3C81" transform="translate(10,277)"/>
<path d="M0 0 C1.90841034 2.86261552 2.30083328 3.79326802 2.66796875 7.01953125 C2.75626953 7.79490234 2.84457031 8.57027344 2.93554688 9.36914062 C3.01869141 10.17544922 3.10183594 10.98175781 3.1875 11.8125 C3.28224609 12.60720703 3.37699219 13.40191406 3.47460938 14.22070312 C3.96015459 18.70180363 4.00968016 22.5531108 3 27 C2.67 27 2.34 27 2 27 C2 22.05 2 17.1 2 12 C1.34 12 0.68 12 0 12 C-0.1953125 9.94921875 -0.390625 7.8984375 -0.5859375 5.84765625 C-0.72257813 5.23792969 -0.85921875 4.62820313 -1 4 C-1.66 3.67 -2.32 3.34 -3 3 C-2.01 3 -1.02 3 0 3 C0 2.01 0 1.02 0 0 Z " fill="#9E2656" transform="translate(613,261)"/>
<path d="M0 0 C1.32 0.33 2.64 0.66 4 1 C4 1.66 4 2.32 4 3 C9.94 3 15.88 3 22 3 C22 3.33 22 3.66 22 4 C12.595 4.495 12.595 4.495 3 5 C2.34 6.98 1.68 8.96 1 11 C-0.625 9.4375 -0.625 9.4375 -2 7 C-1.1875 3.25 -1.1875 3.25 0 0 Z " fill="#DD5A97" transform="translate(194,184)"/>
<path d="M0 0 C4.31409055 5.29456567 5.25230288 9.50179591 5.125 16.3125 C5.10695313 17.56675781 5.08890625 18.82101562 5.0703125 20.11328125 C5.04710937 21.06589844 5.02390625 22.01851563 5 23 C4.34 23.33 3.68 23.66 3 24 C2.95101563 23.05898438 2.90203125 22.11796875 2.8515625 21.1484375 C2.77679688 19.90320313 2.70203125 18.65796875 2.625 17.375 C2.55539062 16.14523437 2.48578125 14.91546875 2.4140625 13.6484375 C2.01727587 10.15222324 1.14020831 7.30938509 0 4 C0 2.68 0 1.36 0 0 Z " fill="#B74273" transform="translate(377,257)"/>
<path d="M0 0 C3.1234786 3.61269814 4.60345097 7.58788804 6.25 12 C6.53101563 12.7115625 6.81203125 13.423125 7.1015625 14.15625 C8.50999397 17.8934741 9.2273703 20.19367838 8 24 C6.74335022 21.09399739 6 19.20395416 6 16 C5.34 16 4.68 16 4 16 C3.67 13.36 3.34 10.72 3 8 C2.34 8 1.68 8 1 8 C0.67 5.36 0.34 2.72 0 0 Z " fill="#A12A5B" transform="translate(594,196)"/>
<path d="M0 0 C0.33 0 0.66 0 1 0 C1.0272616 2.04159095 1.04651345 4.08328963 1.0625 6.125 C1.07410156 7.26195312 1.08570313 8.39890625 1.09765625 9.5703125 C1.005327 12.8129156 0.61389906 15.81932612 0 19 C-0.66 18.67 -1.32 18.34 -2 18 C-2.20852314 11.59370576 -2.1583195 6.07027358 0 0 Z " fill="#9A1E4F" transform="translate(616,336)"/>
<path d="M0 0 C-2.55986879 0.84226 -5.12239015 1.67398551 -7.6875 2.5 C-8.7693457 2.85771484 -8.7693457 2.85771484 -9.87304688 3.22265625 C-13.69407657 4.44398994 -16.93442056 5.32075577 -21 5 C-18 3 -18 3 -14 3 C-14 2.34 -14 1.68 -14 1 C-12.42298018 0.44021816 -10.83800758 -0.09719401 -9.25 -0.625 C-8.36828125 -0.92664063 -7.4865625 -1.22828125 -6.578125 -1.5390625 C-3.58982529 -2.07333427 -2.50076998 -1.62433191 0 0 Z " fill="#94214D" transform="translate(402,606)"/>
<path d="M0 0 C1.45817436 2.91634872 0.2966711 4.94968165 -0.51953125 7.95703125 C-1.08190329 10.34825547 -1.1529528 12.5527552 -1 15 C-1.61875 14.814375 -2.2375 14.62875 -2.875 14.4375 C-5.04160178 13.76313824 -5.04160178 13.76313824 -7 15 C-5.45454854 9.52067211 -2.84456788 4.88570819 0 0 Z " fill="#E63B8B" transform="translate(46,169)"/>
<path d="M0 0 C0.33 0 0.66 0 1 0 C1.12375 0.7425 1.2475 1.485 1.375 2.25 C1.95486701 4.80141485 2.73708739 6.7267573 4 9 C2.1875 10.0625 2.1875 10.0625 0 11 C-0.99 10.67 -1.98 10.34 -3 10 C-3.99 10.66 -4.98 11.32 -6 12 C-4.97379138 9.7897045 -3.94283206 7.92682503 -2.4375 6 C-0.96806014 3.95556194 -0.43835352 2.45477972 0 0 Z " fill="#B42A65" transform="translate(362,267)"/>
<path d="M0 0 C2.55395487 -0.26711404 4.86274374 -0.34849029 7.4140625 -0.29296875 C8.50852188 -0.28660149 8.50852188 -0.28660149 9.62509155 -0.28010559 C11.95876759 -0.26329353 14.2915844 -0.22563868 16.625 -0.1875 C18.20571671 -0.17245634 19.78644693 -0.15876738 21.3671875 -0.14648438 C25.24512344 -0.11338201 29.12241598 -0.06158404 33 0 C33 0.33 33 0.66 33 1 C32.11739502 1.02505615 31.23479004 1.0501123 30.32543945 1.07592773 C27.03593385 1.1713353 23.74658818 1.27055193 20.45727539 1.37231445 C19.03642225 1.41549804 17.61552274 1.45718408 16.19458008 1.49731445 C14.1465053 1.55542095 12.09866035 1.61899638 10.05078125 1.68359375 C8.82012939 1.72025146 7.58947754 1.75690918 6.3215332 1.79467773 C3.44173016 1.97269423 0.80412912 2.34609105 -2 3 C-1.34 2.01 -0.68 1.02 0 0 Z " fill="#FDDFF3" transform="translate(197,188)"/>
<path d="M0 0 C-2.3125 2.0625 -2.3125 2.0625 -5 4 C-5.99 3.67 -6.98 3.34 -8 3 C-10.35188447 3.59793673 -12.68925595 4.25881795 -15 5 C-15.33 4.34 -15.66 3.68 -16 3 C-11.68537178 -1.31462822 -5.62015089 -1.40503772 0 0 Z " fill="#D94088" transform="translate(254,16)"/>
<path d="M0 0 C0 3.57702116 -0.55471906 3.89690783 -2.9375 6.375 C-5.46836407 9.17979288 -6.76418165 11.10899716 -7 15 C-8.65 14.67 -10.3 14.34 -12 14 C-10.41332422 10.09714233 -7.86649519 7.66479018 -4.875 4.75 C-3.96492188 3.85796875 -3.05484375 2.9659375 -2.1171875 2.046875 C-1.41851562 1.37140625 -0.71984375 0.6959375 0 0 Z " fill="#E83D8C" transform="translate(101,96)"/>
<path d="M0 0 C2 1 2 1 3.3125 3.6875 C5.17983217 7.35300388 7.29149251 9.92547798 10 13 C5.125 11.25 5.125 11.25 4 9 C3.01 9.495 3.01 9.495 2 10 C1.01 9.67 0.02 9.34 -1 9 C-0.67 6.03 -0.34 3.06 0 0 Z " fill="#B43169" transform="translate(265,370)"/>
<path d="M0 0 C5.20727928 0.53135503 9.23549238 1.88244106 14 4 C16.77888613 4.69140522 16.77888613 4.69140522 19 5 C19 5.33 19 5.66 19 6 C12.71807333 6.32215009 6.92628703 4.97542901 1 3 C0.67 2.01 0.34 1.02 0 0 Z " fill="#B02A64" transform="translate(331,296)"/>
<path d="M0 0 C2.32947183 2.11770166 3.88750845 4.03335588 5 7 C4.67 7.99 4.34 8.98 4 10 C4 9.34 4 8.68 4 8 C2.68 8.33 1.36 8.66 0 9 C-0.99 7.35 -1.98 5.7 -3 4 C-2.34 4 -1.68 4 -1 4 C-0.67 2.68 -0.34 1.36 0 0 Z " fill="#AD255E" transform="translate(588,183)"/>
<path d="M0 0 C1.32 0.66 2.64 1.32 4 2 C4 4 4 6 4 8 C2.68 8 1.36 8 0 8 C-1.34164079 8.2981424 -2.67851173 8.62243192 -4 9 C-2.94124926 5.59687262 -1.99097846 2.98646769 0 0 Z " fill="#E73B8A" transform="translate(51,160)"/>
<path d="M0 0 C0.66 0.33 1.32 0.66 2 1 C1.236875 1.598125 0.47375 2.19625 -0.3125 2.8125 C-2.3483575 4.46959332 -4.1978279 6.10297674 -6 8 C-6.66 7.67 -7.32 7.34 -8 7 C-8.33 7.99 -8.66 8.98 -9 10 C-9.33 9.67 -9.66 9.34 -10 9 C-11.68183948 8.76712992 -13.3712416 8.58735834 -15.0625 8.4375 C-15.98160156 8.35371094 -16.90070313 8.26992188 -17.84765625 8.18359375 C-18.55792969 8.12300781 -19.26820313 8.06242187 -20 8 C-20 7.67 -20 7.34 -20 7 C-18.71416016 6.87044922 -18.71416016 6.87044922 -17.40234375 6.73828125 C-10.16732173 5.84919737 -5.49846947 4.85911256 0 0 Z " fill="#9E2459" transform="translate(386,378)"/>
<path d="M0 0 C5.61 0 11.22 0 17 0 C16.67 1.65 16.34 3.3 16 5 C15.67 4.01 15.34 3.02 15 2 C10.05 2 5.1 2 0 2 C0 1.34 0 0.68 0 0 Z " fill="#AD3366" transform="translate(387,298)"/>
<path d="M0 0 C0.625 1.78515625 0.625 1.78515625 1 4 C-2.17433143 9.45588214 -5.57467037 12.78498985 -11 16 C-11.99 15.67 -12.98 15.34 -14 15 C-13.49210937 14.67128906 -12.98421875 14.34257812 -12.4609375 14.00390625 C-6.84191425 10.12109805 -3.44177355 5.86665945 0 0 Z " fill="#F8D9EB" transform="translate(377,290)"/>
<path d="M0 0 C0.33 0.66 0.66 1.32 1 2 C-4 7 -9 12 -14 17 C-14.66 16.67 -15.32 16.34 -16 16 C-10.72 10.72 -5.44 5.44 0 0 Z " fill="#CB4E8A" transform="translate(104,91)"/>
<path d="M0 0 C1.2684375 0.433125 1.2684375 0.433125 2.5625 0.875 C6.02361041 2.00772704 9.49372557 3.01824316 13 4 C13 4.33 13 4.66 13 5 C6.59646678 5.2361959 1.15370839 4.823321 -5 3 C-5 2.67 -5 2.34 -5 2 C-3.35 1.67 -1.7 1.34 0 1 C0 0.67 0 0.34 0 0 Z " fill="#9F2958" transform="translate(262,611)"/>
<path d="M0 0 C0.66 0.66 1.32 1.32 2 2 C1.00344362 5.68725859 0.3417689 6.79351462 -3 8.8125 C-6 10 -6 10 -8 10 C-6.75794193 6.27382578 -4.8889325 4.60708543 -2 2 C-1.34 2 -0.68 2 0 2 C0 1.34 0 0.68 0 0 Z " fill="#A62458" transform="translate(509,401)"/>
<path d="M0 0 C2.31 0 4.62 0 7 0 C7.020625 0.5775 7.04125 1.155 7.0625 1.75 C8.5766255 5.38390121 11.55956175 6.24850416 15 8 C14.01 8.495 14.01 8.495 13 9 C10.21484375 7.63671875 10.21484375 7.63671875 6.9375 5.6875 C5.85339844 5.05199219 4.76929688 4.41648437 3.65234375 3.76171875 C1 2 1 2 0 0 Z " fill="#A62B60" transform="translate(152,572)"/>
<path d="M0 0 C0.66 1.32 1.32 2.64 2 4 C1.01 4.33 0.02 4.66 -1 5 C-1.66 4.67 -2.32 4.34 -3 4 C-2.79375 4.763125 -2.5875 5.52625 -2.375 6.3125 C-2 9 -2 9 -4 12 C-4.66 12.66 -5.32 13.32 -6 14 C-5.0625 4.78125 -5.0625 4.78125 -3 1 C-2.01 0.67 -1.02 0.34 0 0 Z " fill="#AC255F" transform="translate(421,294)"/>
<path d="M0 0 C0.33 0.66 0.66 1.32 1 2 C2.31647119 2.69937532 3.65022151 3.36729133 5 4 C5.33 4.33 5.66 4.66 6 5 C8.34987262 5.23527773 10.70556039 5.41386417 13.0625 5.5625 C14.99802734 5.68818359 14.99802734 5.68818359 16.97265625 5.81640625 C18.47119141 5.90728516 18.47119141 5.90728516 20 6 C20 6.33 20 6.66 20 7 C17.41603321 7.08112454 14.83462432 7.14054748 12.25 7.1875 C11.15558594 7.22520508 11.15558594 7.22520508 10.0390625 7.26367188 C6.80514362 7.30777077 4.39960868 7.20042485 1.484375 5.73828125 C0 4 0 4 0 0 Z " fill="#EDB7D4" transform="translate(195,193)"/>
<path d="M0 0 C0 0.66 0 1.32 0 2 C0.66 2.33 1.32 2.66 2 3 C-2.97093824 2.58846263 -7.44508386 2.20399168 -12 0 C-12 -0.33 -12 -0.66 -12 -1 C-7.2319721 -1.80966512 -4.39365476 -2.19682738 0 0 Z " fill="#A52559" transform="translate(236,606)"/>
<path d="M0 0 C2.97 0 5.94 0 9 0 C8.67 1.98 8.34 3.96 8 6 C5.69 5.67 3.38 5.34 1 5 C0.67 3.35 0.34 1.7 0 0 Z " fill="#B92766" transform="translate(167,578)"/>
<path d="M0 0 C1.32 0.33 2.64 0.66 4 1 C4 1.99 4 2.98 4 4 C3.34 4.66 2.68 5.32 2 6 C1.67 6.66 1.34 7.32 1 8 C-0.65 7.67 -2.3 7.34 -4 7 C-2.68 4.69 -1.36 2.38 0 0 Z " fill="#B32963" transform="translate(411,320)"/>
<path d="M0 0 C2 3 2 3 1.625 5.6875 C1.41875 6.450625 1.2125 7.21375 1 8 C-0.65 7.67 -2.3 7.34 -4 7 C-2.92598892 4.08482708 -2.22189824 2.22189824 0 0 Z M-7 8 C-6.01 8.495 -6.01 8.495 -5 9 C-5.99 9.495 -5.99 9.495 -7 10 C-7 9.34 -7 8.68 -7 8 Z " fill="#E93A8C" transform="translate(86,112)"/>
<path d="M0 0 C3.37462715 0.54723683 5.08235 1.0549 8 3 C3.05738183 4.15327757 -1.95661339 4.53972977 -7 5 C-4.68143083 3.45428722 -2.49361571 2.20381448 0 1 C0 0.67 0 0.34 0 0 Z " fill="#E13A88" transform="translate(210,26)"/>
<path d="M0 0 C2 2 2 2 2.3125 5.9375 C2.25612142 8.76155426 2.23113287 9.69182284 0.5 12 C0.005 12.33 -0.49 12.66 -1 13 C-2.07310858 9.72814447 -1.89263102 7.57052408 -1.0625 4.25 C-0.86785156 3.45078125 -0.67320313 2.6515625 -0.47265625 1.828125 C-0.31667969 1.22484375 -0.16070313 0.6215625 0 0 Z " fill="#D84289" transform="translate(18,234)"/>
<path d="M0 0 C0.66 1.32 1.32 2.64 2 4 C1.01 5.32 0.02 6.64 -1 8 C-0.67 8.66 -0.34 9.32 0 10 C-1.32 10.99 -2.64 11.98 -4 13 C-5 11 -5 11 -4.0625 7.875 C-3.711875 6.92625 -3.36125 5.9775 -3 5 C-2.34 5 -1.68 5 -1 5 C-0.67 3.35 -0.34 1.7 0 0 Z " fill="#DA3A86" transform="translate(27,211)"/>
<path d="M0 0 C0.33 0 0.66 0 1 0 C1.12117188 0.67546875 1.24234375 1.3509375 1.3671875 2.046875 C1.53476562 2.93890625 1.70234375 3.8309375 1.875 4.75 C2.03742188 5.63171875 2.19984375 6.5134375 2.3671875 7.421875 C2.88927341 10.000952 2.88927341 10.000952 4.1328125 12.140625 C5 14 5 14 4 17 C1 11.25 1 11.25 1 9 C0.34 9 -0.32 9 -1 9 C-1.125 2.25 -1.125 2.25 0 0 Z " fill="#A7245D" transform="translate(350,362)"/>
<path d="M0 0 C1.32 0.33 2.64 0.66 4 1 C3.67 1.99 3.34 2.98 3 4 C2.34 4 1.68 4 1 4 C1 4.99 1 5.98 1 7 C1.66 7.33 2.32 7.66 3 8 C2.01 8.495 2.01 8.495 1 9 C0.01 8.01 -0.98 7.02 -2 6 C-1.34 4.02 -0.68 2.04 0 0 Z " fill="#CD3277" transform="translate(36,432)"/>
<path d="M0 0 C2.475 0.495 2.475 0.495 5 1 C5 1.66 5 2.32 5 3 C7.97 3 10.94 3 14 3 C14 3.66 14 4.32 14 5 C13.22914063 4.98839844 12.45828125 4.97679687 11.6640625 4.96484375 C10.66117187 4.95582031 9.65828125 4.94679688 8.625 4.9375 C7.12839844 4.92009766 7.12839844 4.92009766 5.6015625 4.90234375 C3.01567547 4.81993398 3.01567547 4.81993398 1 6 C0.67 4.02 0.34 2.04 0 0 Z " fill="#D54585" transform="translate(259,280)"/>
<path d="M0 0 C0.33 0 0.66 0 1 0 C1.33 6.93 1.66 13.86 2 21 C1.67 21 1.34 21 1 21 C1 19.02 1 17.04 1 15 C0.34 15 -0.32 15 -1 15 C-0.67 10.05 -0.34 5.1 0 0 Z " fill="#D63D84" transform="translate(10,325)"/>
<path d="M0 0 C0.66 0.33 1.32 0.66 2 1 C-0.64 4.3 -3.28 7.6 -6 11 C-6.33 9.68 -6.66 8.36 -7 7 C-6.34 6.01 -5.68 5.02 -5 4 C-4.01 4 -3.02 4 -2 4 C-1.34 2.68 -0.68 1.36 0 0 Z " fill="#FCDFF3" transform="translate(80,114)"/>
<path d="M0 0 C-2 3 -2 3 -4.1640625 3.51171875 C-4.97617188 3.56972656 -5.78828125 3.62773437 -6.625 3.6875 C-7.85089844 3.78611328 -7.85089844 3.78611328 -9.1015625 3.88671875 C-9.72804687 3.92410156 -10.35453125 3.96148438 -11 4 C-11 3.34 -11 2.68 -11 2 C-9.73392393 1.46770674 -8.46189588 0.94955456 -7.1875 0.4375 C-6.47980469 0.14746094 -5.77210938 -0.14257812 -5.04296875 -0.44140625 C-3 -1 -3 -1 0 0 Z " fill="#D33B84" transform="translate(235,20)"/>
<path d="M0 0 C1.01382963 3.6208201 1.49897691 7.27811418 2 11 C-0.5 8.6875 -0.5 8.6875 -3 6 C-3 3 -3 3 -1.5 1.3125 C-0.7575 0.6628125 -0.7575 0.6628125 0 0 Z " fill="#B82C69" transform="translate(86,508)"/>
<path d="M0 0 C0 0.66 0 1.32 0 2 C-2 4 -2 4 -4.6015625 4.1953125 C-5.59929687 4.17210937 -6.59703125 4.14890625 -7.625 4.125 C-9.12933594 4.09792969 -9.12933594 4.09792969 -10.6640625 4.0703125 C-11.43492187 4.04710937 -12.20578125 4.02390625 -13 4 C-10.84184495 1.84184495 -9.94361015 1.55101467 -7.0625 0.875 C-6.37285156 0.70742187 -5.68320312 0.53984375 -4.97265625 0.3671875 C-3 0 -3 0 0 0 Z " fill="#B73871" transform="translate(325,234)"/>
<path d="M0 0 C0.66 0.33 1.32 0.66 2 1 C2 1.99 2 2.98 2 4 C1.34 4 0.68 4 0 4 C-0.19335938 4.62648437 -0.38671875 5.25296875 -0.5859375 5.8984375 C-0.84632812 6.71570313 -1.10671875 7.53296875 -1.375 8.375 C-1.63023438 9.18710938 -1.88546875 9.99921875 -2.1484375 10.8359375 C-3 13 -3 13 -5 15 C-4.43174347 9.45949887 -2.37113483 4.96284034 0 0 Z " fill="#CD4284" transform="translate(36,185)"/>
<path d="M0 0 C4.50884026 2.31883213 6.93906776 5.06451569 10 9 C6.84859577 8.65930765 5.39218439 8.41923159 3.1875 6.0625 C2 4 2 4 2 2 C1.34 2 0.68 2 0 2 C0 1.34 0 0.68 0 0 Z " fill="#B63E71" transform="translate(520,90)"/>
<path d="M0 0 C3.99415824 1.36942568 6.88332834 3.14305098 10 6 C10.33 6.99 10.66 7.98 11 9 C10.34 9.66 9.68 10.32 9 11 C8.2575 9.9275 7.515 8.855 6.75 7.75 C4.71459798 4.89115898 2.58340552 2.39204215 0 0 Z " fill="#9A2755" transform="translate(424,424)"/>
<path d="M0 0 C1.89213369 2.38573379 3.02391783 4.07175348 4 7 C3.34 7.66 2.68 8.32 2 9 C1.67 8.34 1.34 7.68 1 7 C0.34 7.99 -0.32 8.98 -1 10 C-1.02689216 8.52093108 -1.04634621 7.04172517 -1.0625 5.5625 C-1.07410156 4.73878906 -1.08570313 3.91507812 -1.09765625 3.06640625 C-1 1 -1 1 0 0 Z " fill="#AD235F" transform="translate(354,280)"/>
<path d="M0 0 C0.99 0.33 1.98 0.66 3 1 C3.33 2.98 3.66 4.96 4 7 C3.34 7 2.68 7 2 7 C2 7.66 2 8.32 2 9 C1.34 9 0.68 9 0 9 C0 6.03 0 3.06 0 0 Z " fill="#C7387B" transform="translate(242,271)"/>
<path d="M0 0 C0.33 0 0.66 0 1 0 C1 1.65 1 3.3 1 5 C1.66 5 2.32 5 3 5 C3.33 8.63 3.66 12.26 4 16 C1.33951455 13.33951455 1.13398293 11.08809 0.3125 7.4375 C0.04050781 6.26058594 -0.23148438 5.08367187 -0.51171875 3.87109375 C-0.67285156 2.92363281 -0.83398438 1.97617188 -1 1 C-0.67 0.67 -0.34 0.34 0 0 Z " fill="#F8CFE8" transform="translate(238,245)"/>
<path d="M0 0 C0.66 0 1.32 0 2 0 C2.66 3.63 3.32 7.26 4 11 C3.01 10.67 2.02 10.34 1 10 C0.234375 8.22265625 0.234375 8.22265625 -0.25 6.0625 C-0.42015625 5.35222656 -0.5903125 4.64195312 -0.765625 3.91015625 C-1 2 -1 2 0 0 Z " fill="#C83579" transform="translate(20,393)"/>
<path d="M0 0 C0 0.33 0 0.66 0 1 C-1.65 1 -3.3 1 -5 1 C-5.33 1.99 -5.66 2.98 -6 4 C-6.99 4.495 -6.99 4.495 -8 5 C-8.65555119 7.52733235 -8.65555119 7.52733235 -9 10 C-9.33 10 -9.66 10 -10 10 C-10.48468708 3.57789614 -10.48468708 3.57789614 -8.375 1.0625 C-5.43969547 -0.25066255 -3.18136394 -0.21691118 0 0 Z " fill="#9D2456" transform="translate(374,358)"/>
<path d="M0 0 C0.66 0.33 1.32 0.66 2 1 C-1.465 3.97 -1.465 3.97 -5 7 C-6.32 6.34 -7.64 5.68 -9 5 C-7.54735962 4.1361871 -6.0876837 3.28419546 -4.625 2.4375 C-3.40683594 1.72400391 -3.40683594 1.72400391 -2.1640625 0.99609375 C-1.44992187 0.66738281 -0.73578125 0.33867188 0 0 Z " fill="#F5D9E5" transform="translate(456,583)"/>
<path d="M0 0 C1.29608947 0.93137592 2.58671632 1.8703566 3.875 2.8125 C4.59429687 3.33457031 5.31359375 3.85664062 6.0546875 4.39453125 C8 6 8 6 10 9 C8.68 8.67 7.36 8.34 6 8 C6 7.34 6 6.68 6 6 C5.071875 5.9071875 5.071875 5.9071875 4.125 5.8125 C2 5 2 5 0.75 2.4375 C0.5025 1.633125 0.255 0.82875 0 0 Z " fill="#F8D6E9" transform="translate(114,545)"/>
<path d="M0 0 C0.33 0 0.66 0 1 0 C1.08159574 4.16138263 0.98248524 7.9472484 0 12 C-0.66 12 -1.32 12 -2 12 C-2.33 12.66 -2.66 13.32 -3 14 C-2.48594831 9.03083364 -1.76615118 4.70973649 0 0 Z " fill="#A4265C" transform="translate(426,264)"/>
<path d="M0 0 C0.99 0.66 1.98 1.32 3 2 C2.01 2.99 1.02 3.98 0 5 C-0.33 4.34 -0.66 3.68 -1 3 C-1.66 3 -2.32 3 -3 3 C-3 3.99 -3 4.98 -3 6 C-4.32 6.33 -5.64 6.66 -7 7 C-6.875 5.1875 -6.875 5.1875 -6 3 C-2.9375 1.25 -2.9375 1.25 0 0 Z " fill="#C13573" transform="translate(310,238)"/>
<path d="M0 0 C-3.67346771 2.44897847 -5.66356399 2.31537716 -10 2 C-10.66 1.34 -11.32 0.68 -12 0 C-7.74433453 -1.16063604 -4.3164922 -0.76173392 0 0 Z " fill="#D6468A" transform="translate(265,14)"/>
<path d="M0 0 C0 0.33 0 0.66 0 1 C-4.29 1 -8.58 1 -13 1 C-8.8803805 -3.1196195 -5.05862051 -1.99991973 0 0 Z " fill="#9A2E58" transform="translate(355,616)"/>
<path d="M0 0 C2.7972908 2.06756277 3.02692273 3.14440371 3.6875 6.6875 C3.790625 7.780625 3.89375 8.87375 4 10 C3.67 9.34 3.34 8.68 3 8 C2.34 8 1.68 8 1 8 C0.34 5.69 -0.32 3.38 -1 1 C-0.67 0.67 -0.34 0.34 0 0 Z " fill="#C83276" transform="translate(24,407)"/>
<path d="M0 0 C0 0.99 0 1.98 0 3 C0.66 3.66 1.32 4.32 2 5 C-2.455 5.495 -2.455 5.495 -7 6 C-7 5.34 -7 4.68 -7 4 C-2.52941176 0 -2.52941176 0 0 0 Z " fill="#BB2463" transform="translate(390,378)"/>
<path d="M0 0 C0.66 0.66 1.32 1.32 2 2 C1.9765625 4.6015625 1.9765625 4.6015625 1.625 7.625 C1.51414062 8.62789063 1.40328125 9.63078125 1.2890625 10.6640625 C1.19367187 11.43492187 1.09828125 12.20578125 1 13 C0.67 13 0.34 13 0 13 C-1.28571429 4.57142857 -1.28571429 4.57142857 0 0 Z " fill="#D9458B" transform="translate(14,251)"/>
<path d="M0 0 C0.33 0 0.66 0 1 0 C1 2.31 1 4.62 1 7 C-0.65 7.33 -2.3 7.66 -4 8 C-2.87548273 5.0280615 -1.77706209 2.66559313 0 0 Z " fill="#D5498B" transform="translate(54,152)"/>
<path d="M0 0 C0.66 0.33 1.32 0.66 2 1 C0.93411431 3.90696099 0.29651501 4.84432962 -2.5 6.3125 C-5 7 -5 7 -7 6 C-4.69 4.02 -2.38 2.04 0 0 Z " fill="#EA3B8E" transform="translate(127,73)"/>
<path d="M0 0 C0 0.66 0 1.32 0 2 C0.66 2.33 1.32 2.66 2 3 C0.68 3 -0.64 3 -2 3 C-2 2.34 -2 1.68 -2 1 C-2.763125 1.515625 -3.52625 2.03125 -4.3125 2.5625 C-5.199375 3.036875 -6.08625 3.51125 -7 4 C-7.99 3.67 -8.98 3.34 -10 3 C-3.375 -1.125 -3.375 -1.125 0 0 Z " fill="#D0317A" transform="translate(418,27)"/>
<path d="M0 0 C1.32 0 2.64 0 4 0 C4.33 1.98 4.66 3.96 5 6 C4.01 6.495 4.01 6.495 3 7 C2.34 6.67 1.68 6.34 1 6 C0.375 2.9375 0.375 2.9375 0 0 Z " fill="#CD2E76" transform="translate(42,450)"/>
<path d="M0 0 C-1.55500981 3.81684226 -4.03595495 6.19195732 -7 9 C-6.53149863 4.78348764 -4.94559315 0 0 0 Z " fill="#F8DBED" transform="translate(360,272)"/>
<path d="M0 0 C0.66 0.33 1.32 0.66 2 1 C1.34 2.65 0.68 4.3 0 6 C-0.66 6 -1.32 6 -2 6 C-2.33 7.32 -2.66 8.64 -3 10 C-3.66 9.67 -4.32 9.34 -5 9 C-4.3566152 7.686298 -3.71021785 6.37407102 -3.0625 5.0625 C-2.70285156 4.33160156 -2.34320313 3.60070312 -1.97265625 2.84765625 C-1 1 -1 1 0 0 Z " fill="#B5346D" transform="translate(292,253)"/>
<path d="M0 0 C1.98 0.66 3.96 1.32 6 2 C5.67 3.32 5.34 4.64 5 6 C1.535 4.02 1.535 4.02 -2 2 C-1.34 1.34 -0.68 0.68 0 0 Z " fill="#C83577" transform="translate(426,30)"/>
<path d="M0 0 C3.96 0.33 7.92 0.66 12 1 C8.09567131 2.95216435 5.27786748 3.50639991 1 4 C0.67 2.68 0.34 1.36 0 0 Z " fill="#E03E8B" transform="translate(280,10)"/>
<path d="M0 0 C-1.6454378 1.68762851 -3.31288577 3.3540349 -5 5 C-5.33 5 -5.66 5 -6 5 C-6 3.35 -6 1.7 -6 0 C-3 -1 -3 -1 0 0 Z " fill="#982952" transform="translate(518,540)"/>
<path d="M0 0 C0.66 0.33 1.32 0.66 2 1 C-1.465 3.97 -1.465 3.97 -5 7 C-5 5.35 -5 3.7 -5 2 C-2.625 0.9375 -2.625 0.9375 0 0 Z " fill="#901C45" transform="translate(537,519)"/>
<path d="M0 0 C0.33 0 0.66 0 1 0 C1 1.65 1 3.3 1 5 C1.99 5.33 2.98 5.66 4 6 C4 6.66 4 7.32 4 8 C5.32 8.66 6.64 9.32 8 10 C5.37344067 9.64505955 3.42031739 9.27538036 1.1875 7.8125 C-0.51995571 5.20638339 -0.20267097 3.0400645 0 0 Z " fill="#A42C60" transform="translate(278,363)"/>
<path d="M0 0 C0.33 0 0.66 0 1 0 C1.36923077 7.50769231 1.36923077 7.50769231 -0.5 10 C-0.995 10.33 -1.49 10.66 -2 11 C-2.19622241 6.78121808 -1.80230168 3.82989106 0 0 Z " fill="#A8275D" transform="translate(414,309)"/>
<path d="M0 0 C2 2 2 2 2.125 5.625 C2.08375 6.73875 2.0425 7.8525 2 9 C1.34 9 0.68 9 0 9 C-0.87890625 2.84765625 -0.87890625 2.84765625 -1 1 C-0.67 0.67 -0.34 0.34 0 0 Z " fill="#9F2355" transform="translate(611,251)"/>
<path d="M0 0 C0.66 0.66 1.32 1.32 2 2 C-0.31 3.65 -2.62 5.3 -5 7 C-5 6.01 -5 5.02 -5 4 C-2.5 1.8125 -2.5 1.8125 0 0 Z " fill="#FADFEF" transform="translate(302,240)"/>
<path d="M0 0 C3.67420866 0.30618405 4.78135513 0.75771784 7.3125 3.5625 C8.1478125 4.7690625 8.1478125 4.7690625 9 6 C4 4 4 4 -1 2 C-0.67 1.34 -0.34 0.68 0 0 Z " fill="#B4376F" transform="translate(509,82)"/>
<path d="M0 0 C0.66 0.33 1.32 0.66 2 1 C1.67 1.598125 1.34 2.19625 1 2.8125 C-0.20787988 5.05386471 -0.20787988 5.05386471 0 8 C-0.99 7.67 -1.98 7.34 -3 7 C-3.33 5.35 -3.66 3.7 -4 2 C-2.125 0.9375 -2.125 0.9375 0 0 Z " fill="#E63B8A" transform="translate(167,47)"/>
<path d="M0 0 C0 0.66 0 1.32 0 2 C0.99 2 1.98 2 3 2 C3 2.66 3 3.32 3 4 C-2.41538462 4.36923077 -2.41538462 4.36923077 -5.375 2.5 C-5.91125 2.005 -6.4475 1.51 -7 1 C-2.25 0 -2.25 0 0 0 Z " fill="#D73A84" transform="translate(354,11)"/>
<path d="M0 0 C3.465 1.98 3.465 1.98 7 4 C4.53721199 5.231394 2.7204945 5.07159196 0 5 C-0.5625 3.0625 -0.5625 3.0625 -1 1 C-0.67 0.67 -0.34 0.34 0 0 Z " fill="#BD3871" transform="translate(478,57)"/>
<path d="M0 0 C2.475 0.99 2.475 0.99 5 2 C4.67 2.66 4.34 3.32 4 4 C1.69 3.67 -0.62 3.34 -3 3 C-2.01 2.01 -1.02 1.02 0 0 Z " fill="#B82462" transform="translate(186,586)"/>
<path d="M0 0 C0.66 0 1.32 0 2 0 C1.67 2.64 1.34 5.28 1 8 C0.01 8 -0.98 8 -2 8 C-1.47731534 5.23723823 -0.89130413 2.6739124 0 0 Z " fill="#9F2B56" transform="translate(601,408)"/>
<path d="M0 0 C0.99 0.495 0.99 0.495 2 1 C2 2.32 2 3.64 2 5 C2.66 5 3.32 5 4 5 C3.34 6.98 2.68 8.96 2 11 C1.67 11 1.34 11 1 11 C0.67 7.37 0.34 3.74 0 0 Z " fill="#E13B8B" transform="translate(10,277)"/>
<path d="M0 0 C0.66 0.66 1.32 1.32 2 2 C2.99 2 3.98 2 5 2 C5 2.99 5 3.98 5 5 C3.35 5.33 1.7 5.66 0 6 C0 4.02 0 2.04 0 0 Z " fill="#B53D73" transform="translate(327,279)"/>
<path d="M0 0 C0.99 0.33 1.98 0.66 3 1 C1.07423885 3.43929746 -0.80090595 5.80090595 -3 8 C-3.36923077 3.44615385 -3.36923077 3.44615385 -1.5 1.1875 C-1.005 0.795625 -0.51 0.40375 0 0 Z " fill="#FBDFF0" transform="translate(293,248)"/>
<path d="M0 0 C2.31 1.98 4.62 3.96 7 6 C6.34 6.66 5.68 7.32 5 8 C0 2.25 0 2.25 0 0 Z " fill="#B44576" transform="translate(530,99)"/>
<path d="M0 0 C0.66 0.33 1.32 0.66 2 1 C0.35 2.65 -1.3 4.3 -3 6 C-3.99 5.34 -4.98 4.68 -6 4 C-4.02 2.68 -2.04 1.36 0 0 Z " fill="#F5DCE7" transform="translate(480,569)"/>
<path d="M0 0 C1.485 0.99 1.485 0.99 3 2 C2.67 3.98 2.34 5.96 2 8 C0.26216175 5.39324263 -0.50215905 3.98704569 -1 1 C-0.67 0.67 -0.34 0.34 0 0 Z " fill="#B5225F" transform="translate(435,432)"/>
<path d="M0 0 C0.66 1.32 1.32 2.64 2 4 C1.01 4.99 0.02 5.98 -1 7 C-1.99 6.67 -2.98 6.34 -4 6 C-2.68 4.02 -1.36 2.04 0 0 Z " fill="#AA3566" transform="translate(390,371)"/>
<path d="M0 0 C2.97 0 5.94 0 9 0 C9 1.32 9 2.64 9 4 C8.01 3.34 7.02 2.68 6 2 C4.0103005 1.60986284 2.00980131 1.26797351 0 1 C0 0.67 0 0.34 0 0 Z " fill="#F5D4E5" transform="translate(369,357)"/>
<path d="M0 0 C0.66 0 1.32 0 2 0 C1.25 5.75 1.25 5.75 -1 8 C-1.04241723 5.66705225 -1.04092937 3.33297433 -1 1 C-0.67 0.67 -0.34 0.34 0 0 Z " fill="#AF2A63" transform="translate(378,282)"/>
<path d="M0 0 C0.99 0.33 1.98 0.66 3 1 C1.35 2.32 -0.3 3.64 -2 5 C-3.32 4.01 -4.64 3.02 -6 2 C-4.02 2 -2.04 2 0 2 C0 1.34 0 0.68 0 0 Z " fill="#D04182" transform="translate(236,186)"/>
<path d="M0 0 C0.33 0.99 0.66 1.98 1 3 C-0.175625 3.928125 -0.175625 3.928125 -1.375 4.875 C-3.96837647 6.89858661 -3.96837647 6.89858661 -6 9 C-5.52797514 4.75177626 -3.03344482 2.80010291 0 0 Z " fill="#CB3F80" transform="translate(88,108)"/>
</svg>
